<svg xmlns="http://www.w3.org/2000/svg" xmlns:xlink="http://www.w3.org/1999/xlink" width="181.877" height="39.353" viewBox="0 0 181.877 39.353"><defs><clipPath id="clip-path"><path id="Path_591" data-name="Path 591" d="M242.906,341.1a1.778,1.778,0,0,0,.037,2.618,2.458,2.458,0,0,0,1.635.5,2.826,2.826,0,0,0,.86-.1c.081-.034.1-.055.124-.137a3.9,3.9,0,0,0,.1-.608c0-.041-.023-.082-.055-.082s-.05.02-.061.092a.714.714,0,0,1-.163.306c-.188.214-.421.246-.842.246a1.534,1.534,0,0,1-1.483-1.611,1.494,1.494,0,0,1,.438-1.2,1.284,1.284,0,0,1,.9-.258,1.334,1.334,0,0,1,.917.271.637.637,0,0,1,.188.427c0,.058.01.1.047.1s.061-.05.065-.113c.005-.091.005-.345.016-.5s.023-.216.023-.255-.017-.046-.069-.052c-.143-.019-.3-.049-.479-.077a4.607,4.607,0,0,0-.69-.049,2.142,2.142,0,0,0-1.511.487" transform="translate(-242.349 -340.615)" fill="#b28d40"></path></clipPath><clipPath id="clip-path-2"><path id="Path_592" data-name="Path 592" d="M250.721,342.666l.46-1.165c.005-.018.009-.042.027-.042s.015.024.022.042l.447,1.169c0,.014,0,.026-.021.026h-.917c-.018,0-.029-.012-.018-.031m.469-1.96-1.243,2.893c-.1.233-.178.374-.394.405-.046,0-.1,0-.142,0a.049.049,0,0,0-.056.05c0,.037.028.047.088.047.247,0,.5-.015.552-.015.153,0,.374.015.531.015.048,0,.076-.01.076-.047s-.012-.05-.07-.05h-.072c-.147,0-.189-.05-.189-.128a.821.821,0,0,1,.07-.282l.253-.618c.012-.026.017-.031.046-.031h1.119a.045.045,0,0,1,.049.031l.368.927a.071.071,0,0,1-.044.1c-.049.008-.061.021-.061.05s.054.032.143.037c.4.01.744.01.913.01s.207-.01.207-.047-.021-.05-.068-.05a1.113,1.113,0,0,1-.177-.016c-.086-.016-.221-.076-.4-.492-.3-.7-1.1-2.579-1.213-2.836-.046-.1-.071-.145-.14-.145-.05,0-.088.056-.142.187" transform="translate(-249.355 -340.52)" fill="#b28d40"></path></clipPath><clipPath id="clip-path-3"><path id="Path_593" data-name="Path 593" d="M258.318,340.741l-.045,2.725c0,.4-.02.525-.143.558a1.06,1.06,0,0,1-.219.02c-.043,0-.076.021-.076.05,0,.046.042.047.109.047.242,0,.471-.015.514-.015.088,0,.308.015.618.015.064,0,.107-.01.107-.047s-.028-.05-.08-.05a.8.8,0,0,1-.249-.032c-.092-.033-.15-.14-.163-.5l-.054-1.878h.017c.09.08.6.638,1.114,1.134.5.482,1.094,1.053,1.391,1.327a.284.284,0,0,0,.195.1c.039,0,.076-.042.076-.143l.055-2.9c0-.26.042-.34.173-.379a.461.461,0,0,1,.145-.016c.052,0,.081-.021.081-.05s-.043-.041-.107-.041c-.233,0-.414.011-.468.011-.1,0-.356-.011-.6-.011-.071,0-.118,0-.118.041s.017.05.075.05a.8.8,0,0,1,.248.026c.114.044.157.125.164.408l.048,2.044H261.1c-.071-.065-.7-.714-1.027-1.034-.693-.677-1.406-1.4-1.468-1.465-.082-.08-.145-.15-.205-.15s-.08.063-.08.157" transform="translate(-257.836 -340.584)" fill="#b28d40"></path></clipPath><clipPath id="clip-path-4"><path id="Path_594" data-name="Path 594" d="M267.4,340.7c-.01.039-.1.48-.1.557,0,.05.011.076.042.076s.042-.021.052-.057a.629.629,0,0,1,.083-.156c.069-.105.186-.136.459-.143l.71-.019v1.863c0,.422,0,.787-.022.979-.016.137-.045.223-.14.243a.658.658,0,0,1-.168.016c-.06,0-.076.025-.076.05s.033.047.091.047c.192,0,.515-.015.623-.015.137,0,.453.015.769.015.052,0,.092-.015.092-.047s-.023-.05-.075-.05a1.751,1.751,0,0,1-.245-.016c-.14-.02-.166-.107-.184-.238-.022-.2-.027-.562-.027-.984V340.96l.6.013c.428.005.553.148.564.265l0,.046c.006.071.017.091.052.091s.04-.022.045-.074c0-.12.011-.459.011-.555,0-.072-.007-.1-.039-.1-.017,0-.052.013-.13.025a2.284,2.284,0,0,1-.324.02h-1.933c-.155,0-.334-.007-.473-.02-.122-.019-.169-.056-.207-.056s-.045.027-.056.086" transform="translate(-267.296 -340.615)" fill="#b28d40"></path></clipPath><clipPath id="clip-path-5"><path id="Path_595" data-name="Path 595" d="M276.058,340.767c-.136,0-.462-.011-.639-.011-.075,0-.114.011-.114.036,0,.046.027.055.076.055a.66.66,0,0,1,.174.021c.1.035.152.086.161.244s.007.277.007.975v.812c0,.443,0,.812-.024,1-.013.135-.043.2-.139.22a.7.7,0,0,1-.169.016c-.059,0-.076.025-.076.05s.034.047.091.047c.191,0,.516-.015.627-.015.127,0,.453.015.766.015.054,0,.091-.015.091-.047s-.02-.05-.075-.05a1.726,1.726,0,0,1-.243-.016c-.142-.02-.174-.092-.189-.214-.023-.2-.023-.565-.023-1.008v-.812c0-.7,0-.83.012-.975.011-.162.047-.225.179-.248a.7.7,0,0,1,.142-.016c.046,0,.075-.01.075-.055,0-.025-.039-.036-.1-.036-.185,0-.495.011-.612.011" transform="translate(-275.305 -340.756)" fill="#b28d40"></path></clipPath><clipPath id="clip-path-6"><path id="Path_596" data-name="Path 596" d="M280.225,340.741l-.044,2.725c-.006.4-.022.525-.146.558a1.028,1.028,0,0,1-.218.02c-.042,0-.073.021-.073.05,0,.046.041.047.107.047.243,0,.471-.015.516-.015.084,0,.308.015.613.015.066,0,.109-.01.109-.047s-.027-.05-.079-.05a.807.807,0,0,1-.251-.032c-.092-.033-.15-.14-.162-.5l-.052-1.878h.015c.092.08.6.638,1.114,1.134.5.482,1.091,1.053,1.39,1.327a.288.288,0,0,0,.195.1c.038,0,.077-.042.077-.143l.052-2.9c0-.26.043-.34.176-.379a.474.474,0,0,1,.146-.016c.054,0,.08-.021.08-.05s-.042-.041-.108-.041c-.233,0-.41.011-.465.011-.1,0-.358-.011-.605-.011-.07,0-.119,0-.119.041s.014.05.075.05a.824.824,0,0,1,.249.026c.113.044.156.125.162.408l.049,2.044h-.021c-.07-.065-.7-.714-1.027-1.034-.694-.677-1.407-1.4-1.468-1.465-.082-.08-.143-.15-.2-.15s-.081.063-.081.157" transform="translate(-279.744 -340.584)" fill="#b28d40"></path></clipPath><clipPath id="clip-path-7"><path id="Path_597" data-name="Path 597" d="M289.782,342.666l.459-1.165c.005-.018.012-.042.029-.042s.016.024.021.042l.448,1.169c.006.014,0,.026-.021.026H289.8c-.017,0-.028-.012-.017-.031m.471-1.96L289.01,343.6c-.1.233-.178.374-.4.405-.044,0-.1,0-.142,0s-.053.021-.053.05.026.047.085.047c.25,0,.506-.015.554-.015.15,0,.373.015.529.015.047,0,.076-.01.076-.047s-.012-.05-.071-.05h-.07c-.147,0-.19-.05-.19-.128a.837.837,0,0,1,.069-.282l.257-.618c.009-.026.013-.031.04-.031h1.121a.045.045,0,0,1,.049.031l.37.927a.072.072,0,0,1-.046.1c-.047.008-.059.021-.059.05s.054.032.139.037c.4.01.746.01.915.01s.2-.01.2-.047-.02-.05-.065-.05a1.12,1.12,0,0,1-.178-.016c-.085-.016-.223-.076-.406-.492-.3-.7-1.1-2.579-1.21-2.836-.05-.1-.071-.145-.143-.145-.047,0-.085.056-.139.187" transform="translate(-288.419 -340.52)" fill="#b28d40"></path></clipPath><clipPath id="clip-path-8"><path id="Path_598" data-name="Path 598" d="M301.031,341.1a1.78,1.78,0,0,0,.039,2.618,2.443,2.443,0,0,0,1.632.5,2.807,2.807,0,0,0,.86-.1.171.171,0,0,0,.127-.137,3.889,3.889,0,0,0,.1-.608c0-.041-.022-.082-.052-.082s-.05.02-.064.092a.7.7,0,0,1-.159.306c-.191.214-.424.246-.844.246a1.534,1.534,0,0,1-1.483-1.611,1.494,1.494,0,0,1,.438-1.2,1.282,1.282,0,0,1,.9-.258,1.343,1.343,0,0,1,.921.271.649.649,0,0,1,.183.427c0,.058.012.1.047.1s.064-.05.067-.113c0-.091,0-.345.017-.5s.02-.216.02-.255-.015-.046-.069-.052c-.143-.019-.3-.049-.478-.077a4.614,4.614,0,0,0-.691-.049,2.137,2.137,0,0,0-1.51.487" transform="translate(-300.476 -340.615)" fill="#b28d40"></path></clipPath><clipPath id="clip-path-9"><path id="Path_599" data-name="Path 599" d="M309.387,342.276c0-1.138.621-1.418,1.152-1.418a1.461,1.461,0,0,1,1.379,1.646c0,1.308-.758,1.465-1.093,1.465a1.508,1.508,0,0,1-1.439-1.693m-.7.143a1.791,1.791,0,0,0,1.946,1.8,1.857,1.857,0,0,0,2-1.881,1.715,1.715,0,0,0-1.949-1.722,1.819,1.819,0,0,0-1.994,1.8" transform="translate(-308.684 -340.615)" fill="#b28d40"></path></clipPath><clipPath id="clip-path-10"><path id="Path_600" data-name="Path 600" d="M318.363,340.741l-.045,2.725c-.006.4-.02.525-.146.558a1.052,1.052,0,0,1-.216.02c-.043,0-.077.021-.077.05,0,.046.044.047.11.047.242,0,.471-.015.513-.015.087,0,.307.015.616.015.067,0,.108-.01.108-.047s-.026-.05-.082-.05a.793.793,0,0,1-.248-.032c-.092-.033-.153-.14-.162-.5l-.054-1.878h.017c.093.08.594.638,1.114,1.134.5.482,1.09,1.053,1.391,1.327a.285.285,0,0,0,.195.1c.039,0,.073-.042.073-.143l.055-2.9c.006-.26.046-.34.174-.379a.488.488,0,0,1,.148-.016c.054,0,.08-.021.08-.05s-.045-.041-.108-.041c-.232,0-.41.011-.464.011-.1,0-.357-.011-.606-.011-.073,0-.122,0-.122.041s.017.05.078.05a.815.815,0,0,1,.248.026c.113.044.156.125.161.408l.05,2.044h-.021c-.069-.065-.7-.714-1.029-1.034-.692-.677-1.405-1.4-1.467-1.465-.081-.08-.145-.15-.2-.15s-.08.063-.08.157" transform="translate(-317.88 -340.584)" fill="#b28d40"></path></clipPath><clipPath id="clip-path-11"><path id="Path_601" data-name="Path 601" d="M327.439,340.7c-.011.039-.1.48-.1.557,0,.05.011.076.045.076s.042-.021.052-.057a.506.506,0,0,1,.084-.156c.067-.105.183-.136.459-.143l.708-.019v1.863c0,.422,0,.787-.021.979-.015.137-.042.223-.14.243a.666.666,0,0,1-.168.016c-.06,0-.077.025-.077.05s.033.047.093.047c.19,0,.514-.015.621-.015.137,0,.456.015.77.015.053,0,.092-.015.092-.047s-.022-.05-.077-.05a1.678,1.678,0,0,1-.242-.016c-.143-.02-.169-.107-.186-.238-.018-.2-.026-.562-.026-.984V340.96l.6.013c.429.005.55.148.56.265l.008.046c0,.071.014.091.055.091.025,0,.037-.022.04-.074,0-.12.012-.459.012-.555,0-.072-.007-.1-.038-.1-.014,0-.055.013-.132.025a2.242,2.242,0,0,1-.322.02h-1.934c-.156,0-.334-.007-.475-.02-.119-.019-.167-.056-.206-.056s-.044.027-.054.086" transform="translate(-327.335 -340.615)" fill="#b28d40"></path></clipPath><clipPath id="clip-path-12"><path id="Path_602" data-name="Path 602" d="M337.5,340.695a1.9,1.9,0,0,1-.2.027c-.093.005-1.148,0-1.3,0-.136,0-.437-.011-.687-.011-.071,0-.11.011-.11.041s.034.05.084.05a.889.889,0,0,1,.187.016c.152.044.2.091.207.248s.006.277.006.975v.812c0,.422,0,.787-.021.979-.017.137-.042.223-.141.243a.669.669,0,0,1-.166.016c-.059,0-.075.025-.075.05s.03.047.091.047c.1,0,.217,0,.329-.01s.218,0,.271,0c.142,0,.319,0,.552.013s.52.014.877.014c.179,0,.221,0,.251-.12a2.781,2.781,0,0,0,.066-.508c0-.048,0-.107-.042-.107s-.042.022-.054.068c-.033.19-.087.288-.207.343a1.261,1.261,0,0,1-.446.058c-.488,0-.635-.067-.644-.382-.007-.139,0-.527,0-.684V342.5c0-.026,0-.05.027-.05.12,0,.66.011.746.024.18.015.237.085.265.181a1.57,1.57,0,0,1,.017.163c0,.021.009.039.042.039s.048-.065.048-.1.012-.216.021-.3c.029-.233.04-.309.04-.338a.044.044,0,0,0-.04-.048c-.021,0-.036.027-.076.057-.041.05-.113.061-.222.073s-.729.012-.839.012c-.026,0-.03-.025-.03-.051v-1.134c0-.031.01-.045.03-.045.1,0,.666.01.75.023.236.022.275.088.311.168a.4.4,0,0,1,.034.166c0,.039.006.059.037.059s.049-.053.055-.077c.012-.052.022-.253.026-.3a2.067,2.067,0,0,1,.04-.3c0-.021-.007-.043-.035-.043a.683.683,0,0,0-.074.022" transform="translate(-335.205 -340.673)" fill="#b28d40"></path></clipPath><clipPath id="clip-path-13"><path id="Path_603" data-name="Path 603" d="M345.108,340.648l-1.277,2.6-1.278-2.566c-.064-.121-.1-.144-.144-.144s-.081.043-.092.118l-.472,3c-.022.151-.064.333-.2.35a.87.87,0,0,1-.146.011c-.048,0-.074.021-.074.045,0,.042.038.052.088.052.149,0,.376-.015.469-.015s.3.015.5.015c.069,0,.114-.01.114-.052,0-.024-.032-.045-.077-.045a.854.854,0,0,1-.168-.02c-.081-.016-.147-.051-.147-.137a1.872,1.872,0,0,1,.016-.217l.228-1.8h.017c.156.321.437.9.475.987.055.129.436.832.546,1.042.078.141.131.236.19.236s.083-.045.19-.262l1.023-2.057h.017l.264,1.993c.018.129.007.18-.022.194s-.055.026-.055.046.029.05.141.056c.193.009.868.031.988.031.068,0,.123-.015.123-.052s-.032-.045-.075-.045a.934.934,0,0,1-.27-.042c-.147-.044-.187-.168-.234-.456l-.431-2.841c-.019-.1-.072-.144-.11-.144s-.086.037-.124.113" transform="translate(-341.43 -340.535)" fill="#b28d40"></path></clipPath><clipPath id="clip-path-14"><path id="Path_604" data-name="Path 604" d="M353.464,340.767c-.136,0-.441-.011-.687-.011-.069,0-.107.011-.107.041s.03.05.079.05a.891.891,0,0,1,.188.016c.153.044.2.091.208.248s0,.277,0,.975v.812c0,.422,0,.787-.025.979-.012.137-.041.223-.137.243a.7.7,0,0,1-.168.016c-.06,0-.077.025-.077.05s.033.047.092.047c.187,0,.492-.015.6-.015.126,0,.462.015.781.015.05,0,.086-.015.086-.047s-.02-.05-.076-.05a1.75,1.75,0,0,1-.242-.016c-.143-.02-.169-.107-.186-.238-.02-.2-.02-.562-.02-.984v-1.823c0-.05.009-.076.037-.085a.769.769,0,0,1,.682.151.854.854,0,0,1,.281.683.718.718,0,0,1-.64.742c-.1,0-.154.024-.154.063s.034.048.059.048.119,0,.14,0a1.128,1.128,0,0,0,1.2-1.115.8.8,0,0,0-.239-.552,1.215,1.215,0,0,0-.888-.259c-.215,0-.593.011-.788.011" transform="translate(-352.67 -340.756)" fill="#b28d40"></path></clipPath><clipPath id="clip-path-15"><path id="Path_605" data-name="Path 605" d="M360.227,342.276c0-1.138.624-1.418,1.151-1.418a1.461,1.461,0,0,1,1.381,1.646c0,1.308-.757,1.465-1.094,1.465a1.509,1.509,0,0,1-1.438-1.693m-.7.143a1.794,1.794,0,0,0,1.948,1.8,1.856,1.856,0,0,0,1.995-1.881,1.713,1.713,0,0,0-1.947-1.722,1.823,1.823,0,0,0-2,1.8" transform="translate(-359.523 -340.615)" fill="#b28d40"></path></clipPath><clipPath id="clip-path-16"><path id="Path_606" data-name="Path 606" d="M370.019,342.525c-.033-.018-.044-.031-.044-.081v-1.368c0-.04.011-.055.044-.066a1.837,1.837,0,0,1,.282-.015.722.722,0,0,1,.723.816.788.788,0,0,1-.307.684.491.491,0,0,1-.336.071,1.231,1.231,0,0,1-.363-.041m-.373-1.758c-.1,0-.4-.011-.651-.011-.071,0-.108.011-.108.041s.031.05.081.05a.9.9,0,0,1,.189.016c.152.044.193.091.207.248s0,.277,0,.975v.812c0,.422,0,.787-.021.979-.014.137-.043.223-.14.243a.677.677,0,0,1-.166.016c-.06,0-.077.025-.077.05s.033.047.094.047c.187,0,.489-.015.582-.015.07,0,.464.015.742.015.059,0,.1-.015.1-.047s-.02-.05-.061-.05a1.758,1.758,0,0,1-.232-.016c-.146-.02-.167-.107-.184-.243-.022-.192-.027-.552-.027-.979v-.065a.034.034,0,0,1,.038-.036l.428.011a.112.112,0,0,1,.087.031c.058.071.259.38.448.629a2.179,2.179,0,0,0,.649.677,1.064,1.064,0,0,0,.521.089h.453c.059,0,.092-.01.092-.047a.053.053,0,0,0-.059-.05.461.461,0,0,1-.116-.011.9.9,0,0,1-.508-.3c-.288-.285-.622-.7-1.045-1.223.467-.373.661-.676.661-1.014a.81.81,0,0,0-.335-.636,1.674,1.674,0,0,0-.9-.194c-.148,0-.581.011-.742.011" transform="translate(-368.888 -340.756)" fill="#b28d40"></path></clipPath><clipPath id="clip-path-17"><path id="Path_607" data-name="Path 607" d="M376.956,341.343l.46-1.165c.005-.018.01-.042.026-.042s.016.024.023.042l.448,1.169c.006.014,0,.026-.021.026h-.92c-.017,0-.03-.012-.017-.031m.47-1.96-1.245,2.893c-.1.233-.178.374-.4.405-.043,0-.1,0-.14,0s-.055.021-.055.05.026.047.086.047c.251,0,.5-.015.553-.015.152,0,.372.015.529.015.048,0,.077-.01.077-.047s-.01-.05-.071-.05H376.7c-.148,0-.194-.05-.194-.128a.9.9,0,0,1,.071-.282l.256-.618c.012-.026.019-.031.044-.031h1.12a.046.046,0,0,1,.05.031l.365.927a.069.069,0,0,1-.041.1c-.051.008-.06.021-.06.05s.055.032.139.037c.4.01.748.01.917.01s.207-.01.207-.047-.025-.05-.067-.05a1.119,1.119,0,0,1-.179-.016c-.084-.016-.22-.076-.4-.492-.3-.7-1.1-2.579-1.211-2.836-.05-.1-.072-.145-.143-.145-.047,0-.086.056-.141.187m.73-1.283a9.89,9.89,0,0,0-.87.68c-.026.027-.047.05-.047.071a.034.034,0,0,0,.031.032.808.808,0,0,0,.095-.042,3.275,3.275,0,0,1,.923-.319.907.907,0,0,1,.184,0c.028,0,.06-.015.028-.081a3.558,3.558,0,0,0-.158-.325c-.028-.05-.038-.066-.078-.066a.232.232,0,0,0-.107.051" transform="translate(-375.592 -338.05)" fill="#b28d40"></path></clipPath><clipPath id="clip-path-18"><path id="Path_608" data-name="Path 608" d="M384.555,340.741l-.045,2.725c-.005.4-.022.525-.145.558a1.038,1.038,0,0,1-.218.02c-.042,0-.074.021-.074.05,0,.046.042.047.107.047.244,0,.471-.015.515-.015.086,0,.307.015.616.015.063,0,.109-.01.109-.047s-.027-.05-.082-.05a.789.789,0,0,1-.249-.032c-.091-.033-.15-.14-.161-.5l-.054-1.878h.013c.093.08.6.638,1.115,1.134.5.482,1.095,1.053,1.393,1.327a.281.281,0,0,0,.194.1c.036,0,.077-.042.077-.143l.052-2.9c0-.26.042-.34.174-.379a.475.475,0,0,1,.145-.016c.054,0,.081-.021.081-.05s-.042-.041-.107-.041c-.232,0-.411.011-.465.011-.1,0-.358-.011-.6-.011-.072,0-.121,0-.121.041s.016.05.075.05a.8.8,0,0,1,.247.026c.117.044.159.125.163.408l.051,2.044h-.022c-.071-.065-.7-.714-1.03-1.034-.692-.677-1.406-1.4-1.464-1.465-.084-.08-.147-.15-.207-.15s-.08.063-.08.157" transform="translate(-384.073 -340.584)" fill="#b28d40"></path></clipPath><clipPath id="clip-path-19"><path id="Path_609" data-name="Path 609" d="M396.322,340.695a1.932,1.932,0,0,1-.2.027c-.091.005-1.146,0-1.3,0-.133,0-.437-.011-.688-.011-.07,0-.109.011-.109.041s.034.05.082.05a.913.913,0,0,1,.189.016c.152.044.2.091.207.248s.005.277.005.975v.812c0,.422,0,.787-.022.979-.017.137-.045.223-.14.243a.7.7,0,0,1-.169.016c-.059,0-.076.025-.076.05s.032.047.091.047c.1,0,.217,0,.33-.01s.218,0,.272,0c.138,0,.319,0,.55.013s.52.014.878.014c.179,0,.221,0,.255-.12a3.248,3.248,0,0,0,.065-.508c0-.048-.006-.107-.044-.107s-.043.022-.055.068c-.032.19-.087.288-.206.343a1.275,1.275,0,0,1-.45.058c-.485,0-.632-.067-.643-.382-.006-.139,0-.527,0-.684V342.5c0-.026.006-.05.027-.05.119,0,.66.011.747.024.178.015.241.085.266.181a1.036,1.036,0,0,1,.015.163c0,.021.012.039.045.039s.048-.065.048-.1.012-.216.02-.3c.03-.233.039-.309.039-.338a.043.043,0,0,0-.039-.048c-.02,0-.037.027-.075.057-.041.05-.112.061-.227.073s-.725.012-.833.012c-.026,0-.032-.025-.032-.051v-1.134c0-.031.011-.045.032-.045.1,0,.668.01.748.023.237.022.274.088.313.168a.4.4,0,0,1,.033.166c0,.039.005.059.039.059s.047-.053.052-.077c.011-.052.023-.253.029-.3a2.074,2.074,0,0,1,.037-.3c0-.021,0-.043-.034-.043a.574.574,0,0,0-.074.022" transform="translate(-394.026 -340.673)" fill="#b28d40"></path></clipPath><clipPath id="clip-path-20"><path id="Path_610" data-name="Path 610" d="M400.818,342.666l.462-1.165c0-.018.008-.042.025-.042s.016.024.021.042l.45,1.169c0,.014,0,.026-.021.026h-.92c-.017,0-.026-.012-.017-.031m.47-1.96-1.244,2.893c-.1.233-.181.374-.4.405-.043,0-.1,0-.141,0a.047.047,0,0,0-.053.05c0,.037.027.047.087.047.248,0,.5-.015.552-.015.152,0,.375.015.528.015.05,0,.077-.01.077-.047s-.009-.05-.071-.05h-.069c-.147,0-.19-.05-.19-.128a.837.837,0,0,1,.071-.282l.252-.618c.011-.026.019-.031.044-.031h1.12a.043.043,0,0,1,.047.031l.37.927a.071.071,0,0,1-.046.1c-.047.008-.059.021-.059.05s.055.032.14.037c.4.01.748.01.916.01s.207-.01.207-.047-.024-.05-.068-.05a1.09,1.09,0,0,1-.176-.016c-.086-.016-.222-.076-.407-.492-.3-.7-1.1-2.579-1.21-2.836-.05-.1-.071-.145-.14-.145-.051,0-.088.056-.142.187" transform="translate(-399.455 -340.52)" fill="#b28d40"></path></clipPath></defs><g id="Group_1377" data-name="Group 1377" transform="translate(-129.336 -263.625)" style="isolation: isolate"><g id="Group_1217" data-name="Group 1217" transform="translate(181.813 299.375)"><g id="Group_1216" data-name="Group 1216" transform="translate(0 0)" clip-path="url(#clip-path)"><rect id="Rectangle_235" data-name="Rectangle 235" width="3.318" height="3.603" transform="translate(0)" fill="#b28d40"></rect></g></g><g id="Group_1219" data-name="Group 1219" transform="translate(185.066 299.331)"><g id="Group_1218" data-name="Group 1218" clip-path="url(#clip-path-2)"><rect id="Rectangle_236" data-name="Rectangle 236" width="3.979" height="3.587" transform="translate(0 0)" fill="#b28d40"></rect></g></g><g id="Group_1221" data-name="Group 1221" transform="translate(189.004 299.36)"><g id="Group_1220" data-name="Group 1220" transform="translate(0 0)" clip-path="url(#clip-path-3)"><rect id="Rectangle_237" data-name="Rectangle 237" width="4.047" height="3.612" transform="translate(0)" fill="#b28d40"></rect></g></g><g id="Group_1223" data-name="Group 1223" transform="translate(193.397 299.375)"><g id="Group_1222" data-name="Group 1222" transform="translate(0 0)" clip-path="url(#clip-path-4)"><rect id="Rectangle_238" data-name="Rectangle 238" width="3.261" height="3.542" transform="translate(0 0)" fill="#b28d40"></rect></g></g><g id="Group_1225" data-name="Group 1225" transform="translate(197.116 299.44)"><g id="Group_1224" data-name="Group 1224" transform="translate(0 0)" clip-path="url(#clip-path-5)"><rect id="Rectangle_239" data-name="Rectangle 239" width="1.584" height="3.477" transform="translate(0)" fill="#b28d40"></rect></g></g><g id="Group_1227" data-name="Group 1227" transform="translate(199.177 299.36)"><g id="Group_1226" data-name="Group 1226" transform="translate(0 0)" clip-path="url(#clip-path-6)"><rect id="Rectangle_240" data-name="Rectangle 240" width="4.045" height="3.612" transform="translate(0)" fill="#b28d40"></rect></g></g><g id="Group_1229" data-name="Group 1229" transform="translate(203.205 299.331)"><g id="Group_1228" data-name="Group 1228" clip-path="url(#clip-path-7)"><rect id="Rectangle_241" data-name="Rectangle 241" width="3.975" height="3.587" transform="translate(0 0)" fill="#b28d40"></rect></g></g><g id="Group_1231" data-name="Group 1231" transform="translate(208.804 299.375)"><g id="Group_1230" data-name="Group 1230" transform="translate(0 0)" clip-path="url(#clip-path-8)"><rect id="Rectangle_242" data-name="Rectangle 242" width="3.315" height="3.603" transform="translate(0)" fill="#b28d40"></rect></g></g><g id="Group_1233" data-name="Group 1233" transform="translate(212.615 299.375)"><g id="Group_1232" data-name="Group 1232" transform="translate(0 0)" clip-path="url(#clip-path-9)"><rect id="Rectangle_243" data-name="Rectangle 243" width="3.943" height="3.603" transform="translate(0 0)" fill="#b28d40"></rect></g></g><g id="Group_1235" data-name="Group 1235" transform="translate(216.885 299.36)"><g id="Group_1234" data-name="Group 1234" transform="translate(0 0)" clip-path="url(#clip-path-10)"><rect id="Rectangle_244" data-name="Rectangle 244" width="4.048" height="3.612" transform="translate(0)" fill="#b28d40"></rect></g></g><g id="Group_1237" data-name="Group 1237" transform="translate(221.275 299.375)"><g id="Group_1236" data-name="Group 1236" transform="translate(0 0)" clip-path="url(#clip-path-11)"><rect id="Rectangle_245" data-name="Rectangle 245" width="3.263" height="3.542" transform="translate(0)" fill="#b28d40"></rect></g></g><g id="Group_1239" data-name="Group 1239" transform="translate(224.93 299.402)"><g id="Group_1238" data-name="Group 1238" transform="translate(0 0)" clip-path="url(#clip-path-12)"><rect id="Rectangle_246" data-name="Rectangle 246" width="2.516" height="3.528" transform="translate(0)" fill="#b28d40"></rect></g></g><g id="Group_1241" data-name="Group 1241" transform="translate(227.82 299.338)"><g id="Group_1240" data-name="Group 1240" transform="translate(0 0)" clip-path="url(#clip-path-13)"><rect id="Rectangle_247" data-name="Rectangle 247" width="4.922" height="3.58" transform="translate(0 0)" fill="#b28d40"></rect></g></g><g id="Group_1243" data-name="Group 1243" transform="translate(233.039 299.44)"><g id="Group_1242" data-name="Group 1242" transform="translate(0 0)" clip-path="url(#clip-path-14)"><rect id="Rectangle_248" data-name="Rectangle 248" width="2.709" height="3.477" transform="translate(0 0)" fill="#b28d40"></rect></g></g><g id="Group_1245" data-name="Group 1245" transform="translate(236.222 299.375)"><g id="Group_1244" data-name="Group 1244" transform="translate(0 0)" clip-path="url(#clip-path-15)"><rect id="Rectangle_249" data-name="Rectangle 249" width="3.943" height="3.603" transform="translate(0 0)" fill="#b28d40"></rect></g></g><g id="Group_1247" data-name="Group 1247" transform="translate(240.57 299.44)"><g id="Group_1246" data-name="Group 1246" transform="translate(0 0)" clip-path="url(#clip-path-16)"><rect id="Rectangle_250" data-name="Rectangle 250" width="3.803" height="3.477" transform="translate(0)" fill="#b28d40"></rect></g></g><g id="Group_1249" data-name="Group 1249" transform="translate(243.683 298.184)"><g id="Group_1248" data-name="Group 1248" clip-path="url(#clip-path-17)"><rect id="Rectangle_251" data-name="Rectangle 251" width="3.979" height="4.734" transform="translate(0)" fill="#b28d40"></rect></g></g><g id="Group_1251" data-name="Group 1251" transform="translate(247.621 299.36)"><g id="Group_1250" data-name="Group 1250" transform="translate(0 0)" clip-path="url(#clip-path-18)"><rect id="Rectangle_252" data-name="Rectangle 252" width="4.045" height="3.612" transform="translate(0)" fill="#b28d40"></rect></g></g><g id="Group_1253" data-name="Group 1253" transform="translate(252.243 299.402)"><g id="Group_1252" data-name="Group 1252" transform="translate(0 0)" clip-path="url(#clip-path-19)"><rect id="Rectangle_253" data-name="Rectangle 253" width="2.519" height="3.528" transform="translate(0)" fill="#b28d40"></rect></g></g><g id="Group_1255" data-name="Group 1255" transform="translate(254.764 299.331)"><g id="Group_1254" data-name="Group 1254" clip-path="url(#clip-path-20)"><rect id="Rectangle_254" data-name="Rectangle 254" width="3.978" height="3.587" transform="translate(0 0)" fill="#b28d40"></rect></g></g><path id="Path_611" data-name="Path 611" d="M242.941,343.72a1.778,1.778,0,0,1-.037-2.619,2.144,2.144,0,0,1,1.51-.486,4.62,4.62,0,0,1,.691.049c.179.027.336.058.478.077.052.006.069.026.069.051s-.011.1-.023.255-.01.407-.015.5c-.005.063-.022.113-.066.113s-.047-.039-.047-.1a.638.638,0,0,0-.187-.426,1.334,1.334,0,0,0-.918-.272,1.286,1.286,0,0,0-.9.258,1.494,1.494,0,0,0-.437,1.2,1.534,1.534,0,0,0,1.483,1.612c.42,0,.654-.032.841-.246a.715.715,0,0,0,.163-.306c.011-.072.023-.092.061-.092s.055.041.055.082a3.9,3.9,0,0,1-.1.608c-.02.082-.042.1-.124.137a2.811,2.811,0,0,1-.86.1,2.457,2.457,0,0,1-1.636-.5" transform="translate(-60.536 -41.24)" fill="#b28d40"></path><path id="Path_612" data-name="Path 612" d="M250.64,342.95c-.029,0-.034.005-.046.032l-.253.618a.833.833,0,0,0-.07.282c0,.078.041.128.188.128h.072c.058,0,.07.021.07.05s-.028.047-.077.047c-.157,0-.377-.015-.531-.015-.048,0-.3.015-.552.015-.059,0-.088-.01-.088-.047a.05.05,0,0,1,.056-.05c.044,0,.1-.005.142-.005.216-.031.3-.172.394-.405l1.243-2.892c.054-.131.092-.187.143-.187.069,0,.093.044.14.145.113.257.908,2.137,1.213,2.836.182.416.318.476.4.492a1.174,1.174,0,0,0,.176.016c.046,0,.068.019.068.05s-.027.047-.207.047-.514,0-.913-.01c-.088-.005-.143-.005-.143-.037s.012-.041.061-.05a.072.072,0,0,0,.044-.1l-.368-.927a.044.044,0,0,0-.048-.032Zm1.015-.254c.021,0,.026-.012.021-.026l-.447-1.169c-.008-.018-.013-.042-.023-.042s-.022.024-.027.042l-.46,1.165c-.011.019,0,.03.018.03Z" transform="translate(-64.289 -41.189)" fill="#b28d40"></path><path id="Path_613" data-name="Path 613" d="M258.69,343.515c.013.356.071.462.163.5a.813.813,0,0,0,.249.032c.052,0,.08.021.08.05s-.043.047-.107.047c-.309,0-.53-.015-.618-.015-.043,0-.272.015-.514.015-.066,0-.109,0-.109-.047,0-.029.033-.05.076-.05a1.091,1.091,0,0,0,.219-.02c.123-.033.138-.157.143-.558l.046-2.725c0-.093.033-.156.08-.156s.124.07.2.15c.061.06.775.788,1.467,1.465.324.32.957.969,1.027,1.034h.022l-.048-2.044c-.007-.282-.05-.364-.164-.408a.8.8,0,0,0-.247-.026c-.059,0-.075-.021-.075-.05s.048-.041.119-.041c.248,0,.5.01.6.01.054,0,.235-.01.468-.01.064,0,.107,0,.107.041s-.029.05-.081.05a.457.457,0,0,0-.144.016c-.131.039-.169.119-.174.379l-.055,2.9c0,.1-.038.143-.076.143a.286.286,0,0,1-.2-.1c-.3-.274-.892-.845-1.39-1.327-.518-.5-1.025-1.055-1.114-1.134h-.017Z" transform="translate(-68.831 -41.224)" fill="#b28d40"></path><path id="Path_614" data-name="Path 614" d="M268.642,340.96l-.71.019c-.273.006-.391.037-.46.143a.621.621,0,0,0-.083.156c-.009.036-.02.057-.052.057s-.042-.026-.042-.076c0-.077.09-.518.1-.557.012-.059.03-.086.056-.086s.085.037.207.055c.138.014.318.02.473.02h1.933a2.231,2.231,0,0,0,.324-.02c.077-.012.112-.024.13-.024s.039.029.039.1c0,.1-.012.435-.012.554,0,.052-.014.074-.045.074s-.046-.02-.052-.091l0-.046c-.011-.117-.136-.26-.564-.265l-.6-.013v1.863c0,.422,0,.786.027.984.018.13.044.217.184.238a1.821,1.821,0,0,0,.245.016c.052,0,.076.025.076.05s-.04.047-.092.047c-.315,0-.632-.015-.769-.015-.108,0-.431.015-.623.015-.058,0-.091-.015-.091-.047s.016-.05.076-.05a.686.686,0,0,0,.169-.016c.1-.02.124-.107.14-.244.022-.192.022-.556.022-.978Z" transform="translate(-73.899 -41.24)" fill="#b28d40"></path><path id="Path_615" data-name="Path 615" d="M275.722,342.087c0-.7,0-.829-.007-.974s-.06-.209-.162-.245a.679.679,0,0,0-.174-.02c-.048,0-.076-.01-.076-.056,0-.026.04-.035.114-.035.177,0,.5.01.639.01.117,0,.427-.01.612-.01.057,0,.1.01.1.035,0,.045-.03.056-.075.056a.7.7,0,0,0-.142.016c-.131.024-.168.087-.179.249-.012.145-.012.276-.012.974v.812c0,.443,0,.813.023,1.008.015.122.047.194.189.214a1.735,1.735,0,0,0,.243.016c.055,0,.075.025.075.05s-.036.047-.09.047c-.314,0-.64-.015-.767-.015-.11,0-.436.015-.626.015-.057,0-.091-.015-.091-.047s.017-.05.076-.05a.694.694,0,0,0,.169-.016c.1-.02.125-.085.139-.22.024-.189.024-.559.024-1Z" transform="translate(-78.189 -41.316)" fill="#b28d40"></path><path id="Path_616" data-name="Path 616" d="M280.6,343.515c.012.356.07.462.163.5a.813.813,0,0,0,.251.032c.052,0,.08.021.08.05s-.043.047-.109.047c-.306,0-.53-.015-.614-.015-.045,0-.273.015-.516.015-.066,0-.107,0-.107-.047,0-.029.031-.05.073-.05a1.064,1.064,0,0,0,.218-.02c.124-.033.14-.157.145-.558l.045-2.725c0-.093.03-.156.08-.156s.123.07.2.15c.061.06.774.788,1.468,1.465.323.32.958.969,1.027,1.034h.021l-.049-2.044c-.005-.282-.048-.364-.162-.408a.824.824,0,0,0-.249-.026c-.06,0-.075-.021-.075-.05s.049-.041.119-.041c.247,0,.5.01.605.01.056,0,.232-.01.465-.01.065,0,.108,0,.108.041s-.026.05-.079.05a.472.472,0,0,0-.146.016c-.134.039-.172.119-.176.379l-.052,2.9c0,.1-.039.143-.076.143a.287.287,0,0,1-.2-.1c-.3-.274-.893-.845-1.39-1.327-.519-.5-1.023-1.055-1.115-1.134h-.015Z" transform="translate(-80.568 -41.224)" fill="#b28d40"></path><path id="Path_617" data-name="Path 617" d="M289.7,342.95c-.026,0-.031.005-.04.032l-.257.618a.845.845,0,0,0-.07.282c0,.078.043.128.19.128h.07c.059,0,.071.021.071.05s-.029.047-.076.047c-.156,0-.379-.015-.529-.015-.047,0-.3.015-.553.015-.059,0-.085-.01-.085-.047a.046.046,0,0,1,.053-.05c.043,0,.1-.005.142-.005.218-.031.3-.172.4-.405l1.243-2.892c.054-.131.092-.187.139-.187.072,0,.094.044.143.145.111.257.907,2.137,1.21,2.836.182.416.321.476.406.492a1.181,1.181,0,0,0,.178.016c.045,0,.065.019.065.05s-.027.047-.205.047-.513,0-.915-.01c-.086-.005-.14-.005-.14-.037s.012-.041.059-.05a.072.072,0,0,0,.046-.1l-.37-.927a.045.045,0,0,0-.049-.032Zm1.019-.254c.021,0,.026-.012.021-.026l-.449-1.169c0-.018-.012-.042-.021-.042s-.024.024-.029.042l-.459,1.165c-.012.019,0,.03.017.03Z" transform="translate(-85.213 -41.189)" fill="#b28d40"></path><path id="Path_618" data-name="Path 618" d="M301.068,343.72a1.78,1.78,0,0,1-.038-2.619,2.138,2.138,0,0,1,1.509-.486,4.62,4.62,0,0,1,.691.049c.179.027.336.058.478.077.054.006.069.026.069.051s-.01.1-.02.255-.013.407-.018.5c0,.063-.022.113-.067.113s-.047-.039-.047-.1a.649.649,0,0,0-.183-.426,1.34,1.34,0,0,0-.92-.272,1.287,1.287,0,0,0-.9.258,1.5,1.5,0,0,0-.437,1.2,1.534,1.534,0,0,0,1.483,1.612c.421,0,.654-.032.844-.246a.706.706,0,0,0,.159-.306c.014-.072.023-.092.064-.092s.053.041.053.082a3.9,3.9,0,0,1-.1.608.17.17,0,0,1-.127.137,2.788,2.788,0,0,1-.859.1,2.442,2.442,0,0,1-1.633-.5" transform="translate(-91.672 -41.24)" fill="#b28d40"></path><path id="Path_619" data-name="Path 619" d="M308.684,342.419a1.819,1.819,0,0,1,1.993-1.8,1.715,1.715,0,0,1,1.949,1.722,1.857,1.857,0,0,1-2,1.881,1.791,1.791,0,0,1-1.946-1.8m3.234.085a1.462,1.462,0,0,0-1.379-1.646c-.531,0-1.152.28-1.152,1.419a1.509,1.509,0,0,0,1.439,1.693c.335,0,1.093-.157,1.093-1.465" transform="translate(-96.069 -41.24)" fill="#b28d40"></path><path id="Path_620" data-name="Path 620" d="M318.735,343.515c.009.356.07.462.162.5a.81.81,0,0,0,.248.032c.056,0,.082.021.082.05s-.041.047-.108.047c-.309,0-.529-.015-.616-.015-.042,0-.271.015-.513.015-.066,0-.11,0-.11-.047,0-.029.033-.05.077-.05a1.09,1.09,0,0,0,.216-.02c.125-.033.14-.157.146-.558l.044-2.725c0-.093.032-.156.081-.156s.123.07.2.15c.062.06.775.788,1.467,1.465.325.32.96.969,1.029,1.034h.021l-.05-2.044c-.005-.282-.048-.364-.161-.408a.812.812,0,0,0-.247-.026c-.062,0-.078-.021-.078-.05s.049-.041.121-.041c.25,0,.5.01.606.01.055,0,.233-.01.464-.01.064,0,.108,0,.108.041s-.026.05-.08.05a.485.485,0,0,0-.147.016c-.128.039-.168.119-.174.379l-.055,2.9c0,.1-.035.143-.073.143a.285.285,0,0,1-.195-.1c-.3-.274-.894-.845-1.391-1.327-.52-.5-1.022-1.055-1.114-1.134h-.017Z" transform="translate(-100.995 -41.224)" fill="#b28d40"></path><path id="Path_621" data-name="Path 621" d="M328.682,340.96l-.708.019c-.275.006-.391.037-.458.143a.49.49,0,0,0-.084.156c-.01.036-.021.057-.052.057s-.045-.026-.045-.076c0-.077.092-.518.1-.557.01-.059.026-.086.054-.086s.087.037.206.055c.141.014.319.02.475.02h1.934a2.186,2.186,0,0,0,.322-.02c.077-.012.117-.024.132-.024.032,0,.038.029.038.1,0,.1-.012.435-.012.554,0,.052-.015.074-.04.074-.04,0-.051-.02-.055-.091l-.008-.046c-.009-.117-.131-.26-.56-.265l-.6-.013v1.863c0,.422.008.786.026.984.017.13.044.217.186.238a1.75,1.75,0,0,0,.242.016c.055,0,.077.025.077.05s-.039.047-.092.047c-.314,0-.633-.015-.77-.015-.107,0-.43.015-.621.015-.06,0-.093-.015-.093-.047s.017-.05.077-.05a.685.685,0,0,0,.168-.016c.1-.02.125-.107.14-.244.021-.192.021-.556.021-.978Z" transform="translate(-106.06 -41.24)" fill="#b28d40"></path><path id="Path_622" data-name="Path 622" d="M335.687,342.042c0-.7,0-.829-.006-.974s-.055-.205-.207-.249a.887.887,0,0,0-.187-.016c-.05,0-.084-.014-.084-.05s.039-.041.11-.041c.25,0,.552.01.687.01.153,0,1.207.005,1.3,0a1.7,1.7,0,0,0,.2-.027.68.68,0,0,1,.074-.022c.029,0,.035.022.035.043a2.05,2.05,0,0,0-.04.3c0,.047-.015.248-.026.3-.006.024-.016.077-.055.077s-.037-.02-.037-.06a.408.408,0,0,0-.034-.165c-.036-.08-.074-.146-.311-.168-.084-.014-.649-.024-.75-.024-.02,0-.03.015-.03.045v1.134c0,.026,0,.051.03.051.11,0,.725,0,.838-.012s.182-.023.222-.073c.04-.031.055-.058.076-.058a.044.044,0,0,1,.04.048c0,.028-.011.1-.04.338-.01.088-.021.274-.021.3s0,.105-.048.105-.042-.019-.042-.04a1.349,1.349,0,0,0-.017-.163c-.028-.1-.085-.166-.265-.181-.087-.012-.626-.024-.747-.024-.023,0-.027.024-.027.05v.368c0,.157-.007.545,0,.684.01.315.156.382.645.382a1.261,1.261,0,0,0,.446-.058c.12-.054.174-.152.207-.343.012-.046.02-.068.054-.068s.042.059.042.107a2.781,2.781,0,0,1-.066.508c-.03.12-.072.12-.251.12-.357,0-.644-.007-.877-.014s-.41-.013-.552-.013c-.053,0-.157,0-.271,0s-.233.01-.328.01c-.061,0-.091-.015-.091-.047s.015-.05.075-.05a.659.659,0,0,0,.166-.016c.1-.02.124-.107.141-.244.022-.192.022-.556.022-.978Z" transform="translate(-110.275 -41.271)" fill="#b28d40"></path><path id="Path_623" data-name="Path 623" d="M342.317,340.653c.011-.075.052-.118.092-.118s.08.023.144.144l1.278,2.566,1.277-2.6c.038-.076.078-.113.124-.113s.091.049.11.144l.431,2.841c.046.287.087.411.234.455a.942.942,0,0,0,.27.042c.044,0,.075.019.075.045s-.055.052-.123.052c-.12,0-.795-.022-.988-.031-.112-.007-.141-.027-.141-.056s.025-.037.055-.046.04-.065.022-.194l-.264-1.993H344.9l-1.023,2.057c-.107.216-.137.262-.19.262s-.113-.1-.19-.236c-.111-.211-.491-.914-.546-1.042-.037-.089-.318-.666-.475-.987h-.017l-.228,1.8a1.887,1.887,0,0,0-.016.217c0,.086.066.121.147.137a.9.9,0,0,0,.168.02c.044,0,.077.021.077.045,0,.042-.045.052-.114.052-.2,0-.418-.015-.5-.015s-.32.015-.469.015c-.05,0-.088-.01-.088-.052,0-.023.026-.045.074-.045a.873.873,0,0,0,.146-.011c.131-.016.173-.2.2-.35Z" transform="translate(-113.61 -41.197)" fill="#b28d40"></path><path id="Path_624" data-name="Path 624" d="M353.149,342.087c0-.7,0-.829,0-.974s-.055-.205-.207-.249a.9.9,0,0,0-.188-.016c-.05,0-.08-.014-.08-.05s.038-.041.107-.041c.246,0,.551.01.687.01.195,0,.572-.01.788-.01a1.214,1.214,0,0,1,.888.259.8.8,0,0,1,.239.551,1.128,1.128,0,0,1-1.2,1.115,1.3,1.3,0,0,1-.14-.005c-.025,0-.059-.015-.059-.048s.052-.062.155-.062a.718.718,0,0,0,.639-.742.853.853,0,0,0-.28-.683.727.727,0,0,0-.479-.175.7.7,0,0,0-.2.025c-.028.009-.037.035-.037.085V342.9c0,.422,0,.787.02.984.017.131.044.217.186.238a1.755,1.755,0,0,0,.242.016c.056,0,.076.025.076.05s-.036.047-.087.047c-.319,0-.654-.015-.781-.015-.106,0-.411.015-.6.015-.059,0-.092-.015-.092-.047s.016-.05.077-.05a.7.7,0,0,0,.168-.016c.1-.02.125-.107.137-.244.025-.192.025-.556.025-.978Z" transform="translate(-119.63 -41.316)" fill="#b28d40"></path><path id="Path_625" data-name="Path 625" d="M359.523,342.419a1.822,1.822,0,0,1,2-1.8,1.713,1.713,0,0,1,1.947,1.722,1.856,1.856,0,0,1-1.995,1.881,1.793,1.793,0,0,1-1.948-1.8m3.236.085a1.462,1.462,0,0,0-1.38-1.646c-.527,0-1.152.28-1.152,1.419a1.51,1.51,0,0,0,1.439,1.693c.337,0,1.094-.157,1.094-1.465" transform="translate(-123.301 -41.24)" fill="#b28d40"></path><path id="Path_626" data-name="Path 626" d="M369.367,342.086c0-.7,0-.829,0-.974s-.055-.2-.207-.248a.9.9,0,0,0-.189-.016c-.05,0-.081-.014-.081-.05s.037-.041.108-.041c.248,0,.55.01.651.01.16,0,.593-.01.741-.01a1.67,1.67,0,0,1,.9.194.809.809,0,0,1,.335.635c0,.338-.2.641-.662,1.014.423.519.757.938,1.045,1.222a.892.892,0,0,0,.507.3.445.445,0,0,0,.116.011.053.053,0,0,1,.059.05c0,.037-.033.047-.092.047h-.453a1.067,1.067,0,0,1-.52-.089,2.188,2.188,0,0,1-.649-.677c-.19-.249-.39-.558-.449-.629a.11.11,0,0,0-.086-.03l-.428-.011a.034.034,0,0,0-.038.036v.065c0,.427,0,.786.027.978.017.136.038.223.184.243a1.741,1.741,0,0,0,.232.016c.041,0,.061.025.061.05s-.038.047-.1.047c-.279,0-.673-.015-.743-.015-.093,0-.4.015-.582.015-.061,0-.094-.015-.094-.047s.017-.05.078-.05a.664.664,0,0,0,.166-.016c.1-.02.126-.107.14-.243.021-.192.021-.556.021-.978Zm.608.358c0,.051.011.063.044.081a1.22,1.22,0,0,0,.364.041.489.489,0,0,0,.335-.071.789.789,0,0,0,.307-.684.723.723,0,0,0-.723-.816,1.841,1.841,0,0,0-.282.015c-.033.011-.044.026-.044.065Z" transform="translate(-128.317 -41.316)" fill="#b28d40"></path><path id="Path_627" data-name="Path 627" d="M376.875,341.627c-.025,0-.032.005-.044.031l-.256.618a.878.878,0,0,0-.071.282c0,.078.045.128.193.128h.069c.06,0,.071.021.071.05s-.029.047-.077.047c-.157,0-.377-.015-.528-.015-.051,0-.3.015-.554.015-.06,0-.086-.01-.086-.047s.016-.05.055-.05.1-.005.14-.005c.217-.031.3-.172.4-.405l1.245-2.893c.054-.13.094-.186.141-.186.071,0,.093.044.143.145.111.257.908,2.138,1.211,2.836.183.417.319.476.4.492a1.128,1.128,0,0,0,.179.016c.042,0,.067.02.067.05s-.027.047-.207.047-.513,0-.916-.01c-.085-.005-.14-.005-.14-.037s.01-.041.061-.05a.069.069,0,0,0,.041-.1l-.365-.927a.046.046,0,0,0-.05-.031Zm1.017-.254c.021,0,.028-.012.021-.026l-.447-1.169c-.008-.018-.012-.042-.024-.042s-.021.025-.026.042l-.461,1.165c-.013.018,0,.03.017.03Zm.606-2.933c.032.066,0,.081-.028.081a.944.944,0,0,0-.184,0,3.306,3.306,0,0,0-.923.319.737.737,0,0,1-.094.042.034.034,0,0,1-.031-.031c0-.021.021-.043.048-.071a9.86,9.86,0,0,1,.87-.68.235.235,0,0,1,.107-.051c.04,0,.05.016.078.066a3.594,3.594,0,0,1,.158.325" transform="translate(-131.908 -39.866)" fill="#b28d40"></path><path id="Path_628" data-name="Path 628" d="M384.928,343.515c.01.356.07.462.161.5a.8.8,0,0,0,.248.032c.054,0,.082.021.082.05s-.046.047-.109.047c-.309,0-.53-.015-.616-.015-.045,0-.272.015-.516.015-.064,0-.106,0-.106-.047,0-.029.032-.05.074-.05a1.078,1.078,0,0,0,.218-.02c.123-.033.14-.157.145-.558l.045-2.725c0-.093.03-.156.08-.156s.123.07.207.15c.058.06.772.788,1.464,1.465.326.32.958.969,1.03,1.034h.022l-.051-2.044c0-.282-.047-.364-.164-.408a.8.8,0,0,0-.248-.026c-.059,0-.075-.021-.075-.05s.049-.041.12-.041c.247,0,.5.01.605.01.053,0,.233-.01.464-.01.065,0,.107,0,.107.041s-.027.05-.081.05a.474.474,0,0,0-.144.016c-.132.039-.169.119-.174.379l-.052,2.9c0,.1-.04.143-.077.143a.281.281,0,0,1-.194-.1c-.3-.274-.893-.845-1.392-1.327-.518-.5-1.023-1.055-1.115-1.134h-.014Z" transform="translate(-136.452 -41.224)" fill="#b28d40"></path><path id="Path_629" data-name="Path 629" d="M394.509,342.042c0-.7,0-.829-.005-.974s-.055-.205-.207-.249a.919.919,0,0,0-.189-.016c-.048,0-.082-.014-.082-.05s.039-.041.109-.041c.25,0,.556.01.688.01.152,0,1.206.005,1.3,0a1.731,1.731,0,0,0,.2-.027.574.574,0,0,1,.074-.022c.03,0,.034.022.034.043a2.059,2.059,0,0,0-.037.3c-.006.047-.018.248-.029.3-.005.024-.016.077-.053.077s-.039-.02-.039-.06a.4.4,0,0,0-.033-.165c-.038-.08-.075-.146-.312-.168-.081-.014-.648-.024-.749-.024-.021,0-.032.015-.032.045v1.134c0,.026.006.051.032.051.108,0,.725,0,.833-.012s.187-.023.227-.073c.038-.031.055-.058.075-.058s.039.022.039.048-.01.1-.039.338c-.008.088-.02.274-.02.3s-.006.105-.048.105-.045-.019-.045-.04a.9.9,0,0,0-.015-.163c-.025-.1-.088-.166-.266-.181-.086-.012-.628-.024-.747-.024-.021,0-.027.024-.027.05v.368c0,.157-.006.545,0,.684.011.315.158.382.643.382a1.274,1.274,0,0,0,.45-.058c.119-.054.174-.152.207-.343.012-.046.021-.068.055-.068s.044.059.044.107a3.256,3.256,0,0,1-.065.508c-.033.12-.076.12-.255.12-.358,0-.645-.007-.878-.014s-.412-.013-.55-.013c-.054,0-.157,0-.272,0s-.232.01-.33.01c-.06,0-.092-.015-.092-.047s.017-.05.076-.05a.687.687,0,0,0,.168-.016c.1-.02.124-.107.14-.244.022-.192.022-.556.022-.978Z" transform="translate(-141.783 -41.271)" fill="#b28d40"></path><path id="Path_630" data-name="Path 630" d="M400.736,342.95c-.025,0-.032.005-.044.032l-.252.618a.84.84,0,0,0-.071.282c0,.078.043.128.189.128h.068c.063,0,.072.021.072.05s-.028.047-.078.047c-.154,0-.376-.015-.528-.015-.048,0-.3.015-.552.015-.059,0-.086-.01-.086-.047a.046.046,0,0,1,.053-.05c.043,0,.1-.005.141-.005.216-.031.3-.172.4-.405l1.243-2.892c.054-.131.092-.187.143-.187.069,0,.09.044.14.145.113.257.908,2.137,1.21,2.836.184.416.32.476.407.492a1.138,1.138,0,0,0,.176.016c.044,0,.068.019.068.05s-.029.047-.207.047-.514,0-.916-.01c-.085-.005-.14-.005-.14-.037s.012-.041.059-.05a.071.071,0,0,0,.045-.1l-.37-.927a.042.042,0,0,0-.047-.032Zm1.019-.254c.021,0,.025-.012.021-.026l-.45-1.169c-.006-.018-.012-.042-.021-.042s-.021.024-.025.042l-.462,1.165c-.009.019,0,.03.017.03Z" transform="translate(-144.691 -41.189)" fill="#b28d40"></path><path id="Path_631" data-name="Path 631" d="M177.716,329.614h129.04l7.255-2.157H169.493Z" transform="translate(-21.51 -34.192)" fill="#b28d40"></path><path id="Path_632" data-name="Path 632" d="M175.086,273.189l-6.728,1.956h65.57l-3.654-1.956Z" transform="translate(-20.902 -5.123)" fill="#b28d40"></path><path id="Path_633" data-name="Path 633" d="M407.32,275.145l-7.619-1.956H345.635l-2.779,1.956Z" transform="translate(-114.374 -5.123)" fill="#b28d40"></path><path id="Path_634" data-name="Path 634" d="M181.756,281.7q.4,0,1.077.034a12.388,12.388,0,0,1,1.463.166,11.282,11.282,0,0,1,1.61.4,5.07,5.07,0,0,1,1.476.753,3.894,3.894,0,0,1,1.065,1.222,3.58,3.58,0,0,1,.409,1.773,4.127,4.127,0,0,1-.787,2.5,6.682,6.682,0,0,1-1.718,1.654,13.912,13.912,0,0,1,1.63.509,5.513,5.513,0,0,1,1.385.758,4.359,4.359,0,0,1,1.343,1.687,4.958,4.958,0,0,1,.435,2.043,5.187,5.187,0,0,1-.622,2.307,4.961,4.961,0,0,1-1.8,2,4.339,4.339,0,0,1-1.85.6,19.733,19.733,0,0,1-2.008.109c-.282,0-.626,0-1.033-.012s-.817-.013-1.232-.02-.8-.013-1.153-.024-.62-.01-.8-.01c-.386,0-.821.01-1.3.033s-.908.046-1.278.078v-.2a2.678,2.678,0,0,0,1-1.026,3.163,3.163,0,0,0,.511-1.439q.087-1.686.1-3.108t.01-3.107c0-.118,0-.239-.01-.357a3.127,3.127,0,0,1,.01-.445v-2.759c0-.408,0-.834-.021-1.277s-.038-.939-.067-1.486a2.623,2.623,0,0,0-.309-1.02q.908.043,1.44.087c.356.031.622.065.8.1a1.077,1.077,0,0,1,.343.112c.052.037.08.071.08.1a1.707,1.707,0,0,1-.057.322c-.035.157-.061.288-.078.39-.043.842-.066,1.587-.066,2.243v2.527c.324,0,.721.011,1.187.034s.817.034,1.055.034a2.607,2.607,0,0,0,.965-.2,2.3,2.3,0,0,0,.9-.668,3.719,3.719,0,0,0,.665-1.208,5.523,5.523,0,0,0,.266-1.853,2.231,2.231,0,0,0-.587-1.541,4.872,4.872,0,0,0-1.408-1.078,7.388,7.388,0,0,0-1.665-.62,6.287,6.287,0,0,0-1.377-.2,8.757,8.757,0,0,0-3.14.521,7.453,7.453,0,0,0-2.3,1.341,5.732,5.732,0,0,0-1.41,1.819,4.488,4.488,0,0,0-.476,1.931,3.466,3.466,0,0,0,.3,1.667.906.906,0,0,0,.811.507.943.943,0,0,0,.777-.3,1.1,1.1,0,0,0,.242-.722,2.274,2.274,0,0,0-.265-1.265,3.009,3.009,0,0,0-.577-.622,1.684,1.684,0,0,1,.654.146,2.65,2.65,0,0,1,.655.4,2.049,2.049,0,0,1,.509.61,1.568,1.568,0,0,1,.2.8,2.116,2.116,0,0,1-.789,1.875,2.947,2.947,0,0,1-1.718.544,2.43,2.43,0,0,1-.934-.19,2.543,2.543,0,0,1-.854-.576,3.03,3.03,0,0,1-.632-.945,3.13,3.13,0,0,1-.245-1.286,6.275,6.275,0,0,1,.621-2.739,6.8,6.8,0,0,1,1.8-2.286,8.8,8.8,0,0,1,2.886-1.565,12.1,12.1,0,0,1,3.882-.576m-.065,15.56a2.727,2.727,0,0,0,.144.973,1.236,1.236,0,0,0,.508.612,2.565,2.565,0,0,0,1.01.321,12.168,12.168,0,0,0,1.641.09,5.6,5.6,0,0,0,1.677-.247,3.49,3.49,0,0,0,1.276-.665,2.4,2.4,0,0,0,.833-1.265,5.226,5.226,0,0,0,.189-1.285,5.508,5.508,0,0,0-.28-1.732,4.1,4.1,0,0,0-.887-1.509,4.51,4.51,0,0,0-1.564-1.079,5.833,5.833,0,0,0-2.288-.41c-.085,0-.231,0-.432-.011s-.417-.019-.654-.034-.468-.02-.7-.02h-.544q0,1.487.045,3.13c.032,1.095.037,2.138.024,3.131" transform="translate(-23.158 -9.682)" fill="#b28d40"></path><path id="Path_635" data-name="Path 635" d="M220.075,308.928a13.536,13.536,0,0,1-1.487-.086,3.963,3.963,0,0,1-1.428-.43,2.863,2.863,0,0,1-1.085-1.017,3.584,3.584,0,0,1-.471-1.823q-.019-.937-.028-1.363c-.007-.28-.01-.522-.01-.727q0-.728.018-1.536t.021-1.576V299.8c0-.192-.007-.378-.021-.555a2.452,2.452,0,0,0-.181-.788,1.608,1.608,0,0,0-.718-.729v-.095q.382.02.814.046t.834.03c.271,0,.542-.01.817-.03s.548-.033.816-.046v.095a1.092,1.092,0,0,0-.633.683,3.858,3.858,0,0,0-.191.892c-.038.356-.062.728-.066,1.112s-.012.775-.012,1.173v1.8c0,.22,0,.458.012.72s.019.674.045,1.237a3.734,3.734,0,0,0,.306,1.555,2.374,2.374,0,0,0,.72.881,2.3,2.3,0,0,0,.979.394,7.292,7.292,0,0,0,1.1.086,9.129,9.129,0,0,0,1.468-.1,2.383,2.383,0,0,0,1.084-.452,2.251,2.251,0,0,0,.689-.979,5.289,5.289,0,0,0,.288-1.705c.014-.4.019-.711.019-.943v-.651c0-.386.006-.777.011-1.183s.011-.8.011-1.2c0-.309,0-.612-.011-.91s-.015-.6-.03-.893a2.091,2.091,0,0,0-.19-.884,1.75,1.75,0,0,0-.825-.633v-.095c.2.013.4.024.594.038s.39.02.594.02c.254,0,.521-.008.8-.02s.553-.032.834-.058v.1a1.269,1.269,0,0,0-.651.54,2.614,2.614,0,0,0-.21,1.034c-.027.64-.039,1.325-.039,2.064v2.044c0,.2-.005.4-.01.586s-.008.378-.008.585a6.791,6.791,0,0,1-.347,2.416,2.826,2.826,0,0,1-.95,1.316,3.109,3.109,0,0,1-1.446.535,14.455,14.455,0,0,1-1.823.105" transform="translate(-45.717 -18.203)" fill="#b28d40"></path><path id="Path_636" data-name="Path 636" d="M241.444,308.64c-.283,0-.594.011-.941.037s-.644.052-.9.078v-.212a1.313,1.313,0,0,0,.392-.26,2.634,2.634,0,0,0,.365-.4,2.47,2.47,0,0,0,.279-.471,1.11,1.11,0,0,0,.117-.461q.017-1,.017-1.792v-1.813c0-.664-.007-1.362-.03-2.092s-.052-1.426-.1-2.092a1.5,1.5,0,0,0-.287-.788,2.029,2.029,0,0,0-.9-.649l-.016-.155c.129.01.3.021.518.031s.44.026.669.041.456.029.672.042.39.019.518.019.378,0,.71-.019.677-.026,1.036-.034.716-.039,1.074-.056.691-.024,1-.024c.152,0,.317.005.49.01s.332.018.477.036a1.787,1.787,0,0,1,.372.087c.106.039.156.091.156.154a2.711,2.711,0,0,0,.068.672,2.149,2.149,0,0,1,.068.575c0,.077-.027.115-.077.115a.169.169,0,0,1-.164-.125,1.075,1.075,0,0,0-.142-.26,2.032,2.032,0,0,0-.768-.462,5.627,5.627,0,0,0-1.88-.228c-.256,0-.519.013-.79.039s-.637.051-1.111.077a1.387,1.387,0,0,0-.085.45,3.828,3.828,0,0,1-.048.488q-.057.825-.066,1.717c-.007.6-.009,1.178-.009,1.739q.534,0,1.034.019c.335.013.667.021,1,.021a2.876,2.876,0,0,0,.335-.021,2.771,2.771,0,0,1,.334-.019,3.888,3.888,0,0,0,.9-.151,1.669,1.669,0,0,0,.844-.615h.1a5.158,5.158,0,0,1-.059.542,3.972,3.972,0,0,0-.038.594v.5c0,.107.007.281.02.528h-.116a1.229,1.229,0,0,0-.786-.564,5.6,5.6,0,0,0-1.017-.185c-.4-.022-.813-.039-1.247-.039h-1.3v.039q0,1,.047,1.824t.086,1.821a.77.77,0,0,0,.306.6,2.26,2.26,0,0,0,.691.355,3.764,3.764,0,0,0,.873.174q.471.039.854.039a9.61,9.61,0,0,0,1.124-.068,2.177,2.177,0,0,0,1.024-.392,4.1,4.1,0,0,0,.884-.8c.215-.275.378-.414.48-.414a.12.12,0,0,1,.133.136.594.594,0,0,1-.1.307c-.072.116-.15.24-.24.373s-.183.276-.278.425a1.508,1.508,0,0,0-.2.431.815.815,0,0,1-.183.364q-.143.173-.737.173h-3.282c-.257,0-.492,0-.709-.01s-.434-.008-.653-.008Z" transform="translate(-58.973 -18.182)" fill="#b28d40"></path><path id="Path_637" data-name="Path 637" d="M269.785,297.423q.288.039.537.076a3.337,3.337,0,0,0,.518.039c.268,0,.539-.006.814-.019s.549-.034.816-.058v.1a1.13,1.13,0,0,0-.643.672,3.149,3.149,0,0,0-.182.9c-.039.359-.06.727-.068,1.112s-.008.775-.008,1.172v1.8c0,.447-.007.963-.019,1.543s-.02,1.158-.02,1.72c0,.28,0,.552.009.814s.015.5.029.723c.012.355.019.6.019.716s-.044.184-.135.184c-.065,0-.217-.137-.459-.4l-8.52-8.557h-.1a3.837,3.837,0,0,0-.038.546v.546c0,.372.01.744.02,1.113s.018.726.018,1.057q0,1,.029,2.015c.021.677.041,1.349.067,2.015a1.71,1.71,0,0,0,.251.757,1.39,1.39,0,0,0,.69.526v.115c-.294-.025-.585-.043-.873-.057s-.578-.019-.875-.019c-.268,0-.447.005-.534.011s-.263.021-.518.047v-.116a1.655,1.655,0,0,0,.623-.461,1.1,1.1,0,0,0,.26-.73q.038-1.016.037-2.033v-2.033c0-.447,0-.911.013-1.391s.007-.958.007-1.429v-.723c0-.235-.007-.463-.02-.679v-.1a2.019,2.019,0,0,0-.23-.728,1.9,1.9,0,0,0-.728-.69l-.04-.115c.22.011.47.032.759.057s.553.037.8.037l8.519,8.752h.1c.012-.5.019-1,.019-1.5v-1.517c0-.678-.012-1.375-.029-2.089s-.047-1.417-.086-2.094a3.5,3.5,0,0,0-.134-.785,1.348,1.348,0,0,0-.691-.73Z" transform="translate(-70.279 -18.094)" fill="#b28d40"></path><path id="Path_638" data-name="Path 638" d="M295.049,307.578l-1.054-2.6a11.476,11.476,0,0,0-2.372,1.013,11.093,11.093,0,0,0-1.931,1.394c-.1.087-.2.195-.321.323s-.227.248-.329.365-.184.226-.256.313a.545.545,0,0,0-.1.18.551.551,0,0,0,.214.384v.078a8.084,8.084,0,0,0-1.155-.078,9.774,9.774,0,0,0-1.269.078l.072-.078a2.458,2.458,0,0,0,.911-.5,2.545,2.545,0,0,0,.657-.895l3.447-7.692a.685.685,0,0,0,.044-.226,1.183,1.183,0,0,0-.306-.779,3.07,3.07,0,0,0-.777-.69l-.029-.094c.238.018.519.033.841.046s.614.019.87.019h.386l.653,1.537,1.868,4.314a17.64,17.64,0,0,1,1.9-.025,18.674,18.674,0,0,1,1.887.171l.057.263a15.738,15.738,0,0,0-1.853.026,15.127,15.127,0,0,0-1.708.222l1.284,2.972a2.616,2.616,0,0,0,.511.809,1.992,1.992,0,0,0,.769.507v.092a10.746,10.746,0,0,0-1.566-.122,12.044,12.044,0,0,0-1.68.122v-.078a.321.321,0,0,1,.069-.191c.048-.067.1-.137.156-.207a1.585,1.585,0,0,0,.158-.222.44.44,0,0,0,.069-.234,1.108,1.108,0,0,0-.033-.266,1.9,1.9,0,0,0-.078-.247m-2.963-7.219-2.524,5.733a6.7,6.7,0,0,1,1.9-1.23,10.581,10.581,0,0,1,2.223-.676l-1.554-3.828Z" transform="translate(-84.17 -18.451)" fill="#b28d40"></path><path id="Path_639" data-name="Path 639" d="M362.958,307.578l-1.054-2.6a11.515,11.515,0,0,0-2.374,1.013,11.167,11.167,0,0,0-1.931,1.394c-.1.087-.2.195-.322.323s-.227.248-.326.365-.187.226-.256.313a.519.519,0,0,0-.107.18.553.553,0,0,0,.214.384v.078a8.07,8.07,0,0,0-1.155-.078,9.742,9.742,0,0,0-1.269.078l.071-.078a2.472,2.472,0,0,0,.913-.5,2.52,2.52,0,0,0,.653-.895l3.451-7.692a.716.716,0,0,0,.042-.226,1.17,1.17,0,0,0-.306-.779,3.1,3.1,0,0,0-.777-.69l-.029-.094c.239.018.518.033.842.046s.611.019.869.019h.384l.655,1.537,1.868,4.314a17.658,17.658,0,0,1,1.9-.025,18.718,18.718,0,0,1,1.886.171l.057.263a15.737,15.737,0,0,0-1.853.026,15.263,15.263,0,0,0-1.71.222l1.285,2.972a2.6,2.6,0,0,0,.513.809,1.993,1.993,0,0,0,.768.507v.092a10.721,10.721,0,0,0-1.566-.122,12.131,12.131,0,0,0-1.683.122v-.078a.317.317,0,0,1,.072-.191c.05-.067.1-.137.157-.207a1.746,1.746,0,0,0,.157-.222.455.455,0,0,0,.07-.234,1.139,1.139,0,0,0-.035-.266,2.245,2.245,0,0,0-.078-.247m-2.964-7.219-2.523,5.733a6.708,6.708,0,0,1,1.895-1.23,10.55,10.55,0,0,1,2.222-.676l-1.552-3.828Z" transform="translate(-120.545 -18.451)" fill="#b28d40"></path><path id="Path_640" data-name="Path 640" d="M327.877,287.114c.229,0,.541.011.93.03a11.375,11.375,0,0,1,1.265.144,9.565,9.565,0,0,1,1.392.345,4.38,4.38,0,0,1,1.273.652,3.361,3.361,0,0,1,.922,1.054,3.1,3.1,0,0,1,.356,1.536,3.623,3.623,0,0,1-.681,2.159,5.738,5.738,0,0,1-1.487,1.431,11.725,11.725,0,0,1,1.411.439,4.709,4.709,0,0,1,1.2.653,3.769,3.769,0,0,1,1.161,1.459,4.3,4.3,0,0,1,.376,1.765,4.5,4.5,0,0,1-.537,2A4.347,4.347,0,0,1,333.9,302.5a3.809,3.809,0,0,1-1.6.515,16.254,16.254,0,0,1-1.736.1c-.242,0-.542,0-.89-.011s-.705-.013-1.066-.019-.691-.012-1-.017-.534-.011-.689-.011c-.335,0-.707.011-1.123.028s-.783.043-1.1.069v-.176a2.261,2.261,0,0,0,.864-.881A2.739,2.739,0,0,0,326,300.85q.075-1.456.087-2.683t.007-2.688q0-.153-.007-.308a2.832,2.832,0,0,1,.007-.383V292.4c0-.351-.005-.719-.019-1.1s-.03-.814-.057-1.284a2.212,2.212,0,0,0-.266-.885q.785.038,1.245.076a6.481,6.481,0,0,1,.69.086.956.956,0,0,1,.3.1c.044.031.064.06.064.085a1.4,1.4,0,0,1-.046.278,3.107,3.107,0,0,0-.067.338c-.037.73-.056,1.374-.056,1.936v2.187c.28,0,.621.011,1.025.029s.709.029.912.029a2.248,2.248,0,0,0,.835-.173,1.985,1.985,0,0,0,.777-.575,3.321,3.321,0,0,0,.577-1.047,4.8,4.8,0,0,0,.23-1.6,1.932,1.932,0,0,0-.509-1.331,4.178,4.178,0,0,0-1.219-.932,6.5,6.5,0,0,0-1.437-.539,5.374,5.374,0,0,0-1.19-.169,7.538,7.538,0,0,0-2.713.45,6.4,6.4,0,0,0-1.988,1.162,4.878,4.878,0,0,0-1.218,1.572,3.839,3.839,0,0,0-.412,1.669,2.963,2.963,0,0,0,.26,1.436.778.778,0,0,0,.7.442.815.815,0,0,0,.669-.259.961.961,0,0,0,.213-.623,1.966,1.966,0,0,0-.23-1.093,2.564,2.564,0,0,0-.5-.536,1.506,1.506,0,0,1,.566.122,2.353,2.353,0,0,1,.566.346,1.877,1.877,0,0,1,.44.529,1.349,1.349,0,0,1,.174.691,1.832,1.832,0,0,1-.682,1.621,2.557,2.557,0,0,1-1.487.47,2.1,2.1,0,0,1-.8-.164,2.2,2.2,0,0,1-.736-.5,2.574,2.574,0,0,1-.55-.817,2.725,2.725,0,0,1-.211-1.112,5.4,5.4,0,0,1,.537-2.367,5.878,5.878,0,0,1,1.555-1.975,7.644,7.644,0,0,1,2.492-1.354,10.534,10.534,0,0,1,3.36-.5m-.057,13.452a2.4,2.4,0,0,0,.123.843,1.087,1.087,0,0,0,.442.528,2.208,2.208,0,0,0,.874.277,10.62,10.62,0,0,0,1.42.078,4.828,4.828,0,0,0,1.449-.211,3.036,3.036,0,0,0,1.1-.576,2.079,2.079,0,0,0,.721-1.093,4.5,4.5,0,0,0,.162-1.113,4.764,4.764,0,0,0-.239-1.5,3.535,3.535,0,0,0-.768-1.307,3.9,3.9,0,0,0-1.35-.931,5.022,5.022,0,0,0-1.979-.355c-.076,0-.2,0-.372-.008s-.363-.016-.566-.03-.406-.019-.607-.019h-.469q0,1.289.039,2.708c.027.948.033,1.848.02,2.706" transform="translate(-102.095 -12.582)" fill="#b28d40"></path><path id="Path_641" data-name="Path 641" d="M382.276,297.828c.511,0,1-.024,1.478-.069s.941-.068,1.4-.068a6.1,6.1,0,0,1,1.17.137,4.376,4.376,0,0,1,1.188.381,2.6,2.6,0,0,1,1.142,1.123,3,3,0,0,1,.355,1.371,2.838,2.838,0,0,1-.41,1.478,3.3,3.3,0,0,1-1.087,1.115c-.112.052-.229.1-.342.162a1.491,1.491,0,0,1-.385.126c.344.473.725,1,1.141,1.6a18.508,18.508,0,0,0,1.322,1.678,8.508,8.508,0,0,0,1.45,1.316,2.625,2.625,0,0,0,1.534.528,3,3,0,0,0,.346-.021,3.382,3.382,0,0,1,.366-.018c.061,0,.093.026.093.076,0,.065-.055.129-.162.19a1.566,1.566,0,0,1-.394.165,4.2,4.2,0,0,1-.469.1,2.668,2.668,0,0,1-.392.039,3.916,3.916,0,0,1-2.16-.569,7.405,7.405,0,0,1-1.628-1.4,19.36,19.36,0,0,1-1.4-1.772,11.059,11.059,0,0,0-1.468-1.706h-.806a2.944,2.944,0,0,0-.525.007c-.226.02-.432.037-.625.049q0,.9.019,1.8c.014.6.045,1.2.1,1.8a1.419,1.419,0,0,0,.251.814,1.677,1.677,0,0,0,.67.453v.115c-.295-.013-.585-.028-.872-.045s-.582-.032-.874-.032c-.255,0-.551.009-.891.032l-.894.045v-.133a2.922,2.922,0,0,0,.723-.453,1.046,1.046,0,0,0,.392-.716c.011-.681.018-1.355.018-2.035v-2.032q0-1.019-.039-2.112c-.027-.73-.05-1.427-.077-2.094a2.01,2.01,0,0,0-.191-.755,1.441,1.441,0,0,0-.786-.645v-.133c.257.026.535.048.844.066s.6.032.881.032m.806,1.493c-.038.346-.059.7-.066,1.054s-.009.726-.009,1.1V303.2q.326,0,.767-.008c.292-.007.517-.009.671-.009a3.379,3.379,0,0,0,2.407-.652,2.527,2.527,0,0,0,.606-1.921,1.975,1.975,0,0,0-.272-1.085,2.208,2.208,0,0,0-.9-.892,2.409,2.409,0,0,0-.952-.288,9.261,9.261,0,0,0-1.025-.055c-.19,0-.378.008-.556.026s-.366.036-.556.049a.887.887,0,0,0-.108.462,4.222,4.222,0,0,1-.009.5" transform="translate(-134.543 -18.248)" fill="#b28d40"></path><path id="Path_642" data-name="Path 642" d="M316.129,268.555a.042.042,0,0,0-.046-.039c-.033,0-.066.026-.1.081s-.076.121-.125.2-.1.169-.169.26a1.123,1.123,0,0,1-.242.251,1.528,1.528,0,0,1-.62.286,2.837,2.837,0,0,1-.649.086,2.7,2.7,0,0,1-.4-.031,1.3,1.3,0,0,1-.365-.118.761.761,0,0,1-.266-.234.649.649,0,0,1-.113-.368c-.022-.405-.037-.825-.05-1.253s-.016-.85-.016-1.253c0-.191,0-.366.006-.526s.006-.319.011-.473.013-.312.02-.474.018-.34.029-.533c.006-.037.015-.083.029-.141.007-.037.012-.064.015-.087,0,0,0-.01,0-.015v-.016s0,0,0,0a.256.256,0,0,0-.07-.163.933.933,0,0,0-.431-.219,2.6,2.6,0,0,0-.558-.081c-.189-.011-.312-.013-.364-.013a2.539,2.539,0,0,0-1.019.209,3.116,3.116,0,0,0-.844.539,2.583,2.583,0,0,0-.567.72,1.6,1.6,0,0,0-.207.746.973.973,0,0,0,.109.47,1.11,1.11,0,0,0,.28.343,1.133,1.133,0,0,0,.376.209,1.274,1.274,0,0,0,.411.071,1.507,1.507,0,0,0,.761-.2.725.725,0,0,0,.346-.683.5.5,0,0,0-.087-.29.812.812,0,0,0-.224-.223,1.321,1.321,0,0,0-.29-.147.919.919,0,0,0-.29-.05.978.978,0,0,1,.254.215.726.726,0,0,1,.12.468.359.359,0,0,1-.109.264.463.463,0,0,1-.341.111.42.42,0,0,1-.358-.182,1.042,1.042,0,0,1-.133-.611,1.307,1.307,0,0,1,.117-.5,1.616,1.616,0,0,1,.359-.508,2.063,2.063,0,0,1,.6-.4,2.1,2.1,0,0,1,.838-.162,3.112,3.112,0,0,1,.4.029.926.926,0,0,1,.071.27q.015.3.022.547c.007.161.009.324.009.483v1.031c0,.408,0,.823,0,1.246s-.009.834-.012,1.244a.774.774,0,0,1-.06.277,1.847,1.847,0,0,1-.135.293,1.469,1.469,0,0,1-.185.251.765.765,0,0,1-.2.165l.007.087c.133-.009.287-.022.461-.037s.33-.02.468-.02c.168,0,.316,0,.449.008s.267.011.4.02.274.013.428.019.326.009.525.009c.166,0,.342-.007.521-.019s.353-.024.523-.029a.258.258,0,0,0,.216-.112.684.684,0,0,0,.1-.22,1.605,1.605,0,0,1,.1-.271c.043-.093.083-.187.124-.281s.076-.181.106-.259a.594.594,0,0,0,.046-.2.41.41,0,0,0-.012-.065" transform="translate(-96.244 -0.028)" fill="#b28d40"></path><path id="Path_643" data-name="Path 643" d="M329.512,269.154l-.567-1.513a6.046,6.046,0,0,0-1.272.588,5.923,5.923,0,0,0-1.036.811c-.052.052-.109.113-.173.188s-.12.144-.176.213-.1.131-.137.186a.247.247,0,0,0-.057.1.319.319,0,0,0,.117.222V270a4.116,4.116,0,0,0-.621-.047,4.917,4.917,0,0,0-.683.047l.038-.047a1.266,1.266,0,0,0,.489-.29,1.491,1.491,0,0,0,.353-.521l1.852-4.476a.464.464,0,0,0,.023-.13.739.739,0,0,0-.163-.455,1.775,1.775,0,0,0-.419-.4l-.014-.053c.128.011.276.019.452.026s.328.011.467.011h.206l.352.9,1,2.51a8.4,8.4,0,0,1,1.022-.017,10.167,10.167,0,0,1,1.012.1l.03.151a7.971,7.971,0,0,0-.994.015,7.039,7.039,0,0,0-.918.131l.689,1.727a1.6,1.6,0,0,0,.272.473,1.108,1.108,0,0,0,.414.293V270a5.116,5.116,0,0,0-.839-.071,5.794,5.794,0,0,0-.9.071v-.047a.2.2,0,0,1,.038-.111c.025-.038.053-.08.084-.12a.891.891,0,0,0,.083-.128.284.284,0,0,0,.04-.137.787.787,0,0,0-.018-.152c-.016-.059-.029-.105-.044-.149m-1.589-4.2-1.356,3.332a3.517,3.517,0,0,1,1.02-.714,5.259,5.259,0,0,1,1.192-.392l-.834-2.226Z" transform="translate(-104.759)" fill="#b28d40"></path><path id="Path_644" data-name="Path 644" d="M431.042,320.421s.23.189.608-.068l-.035.157-.276.133a1.065,1.065,0,0,1-.169.047,1.363,1.363,0,0,1-.175-.047Z" transform="translate(-161.586 -30.387)" fill="#b28d40"></path><path id="Path_645" data-name="Path 645" d="M440.568,291.287l-.1-.462c-1.085-.154-2.2-.254-3.321-.3a30.823,30.823,0,0,0-3.345.048l-3.284-7.586-1.156-2.7h-.677c-.45,0-.96-.015-1.53-.036s-1.058-.05-1.478-.083l.051.163a5.43,5.43,0,0,1,1.364,1.215,2.072,2.072,0,0,1,.541,1.376,1.183,1.183,0,0,1-.074.392l-6.068,13.535a4.41,4.41,0,0,1-1.155,1.57,4.259,4.259,0,0,1-.936.613,2.993,2.993,0,0,1-.4-.237,8.485,8.485,0,0,1-1.447-1.316,17.673,17.673,0,0,1-1.323-1.678c-.417-.6-.8-1.127-1.141-1.6a1.492,1.492,0,0,0,.382-.126c.115-.058.231-.11.346-.162a3.3,3.3,0,0,0,1.084-1.115,2.835,2.835,0,0,0,.413-1.478,3,3,0,0,0-.356-1.371,2.613,2.613,0,0,0-1.14-1.123,4.359,4.359,0,0,0-1.191-.381,6.082,6.082,0,0,0-1.169-.137c-.462,0-.925.023-1.4.068s-.964.07-1.478.07c-.28,0-.575-.012-.881-.032s-.586-.04-.843-.066v.132a1.442,1.442,0,0,1,.785.645,2.016,2.016,0,0,1,.193.756q.036,1,.076,2.094c.023.73.039,1.433.039,2.112v2.033c0,.679-.006,1.354-.02,2.035a1.045,1.045,0,0,1-.392.716,3.012,3.012,0,0,1-.72.453v.132l.893-.045c.337-.023.635-.032.891-.032.294,0,.583.009.872.032s.576.032.872.045v-.114a1.7,1.7,0,0,1-.673-.453,1.465,1.465,0,0,1-.247-.814c-.054-.6-.085-1.2-.1-1.8s-.018-1.2-.018-1.8c.193-.011.4-.028.624-.048a2.934,2.934,0,0,1,.527-.008h.805a11.441,11.441,0,0,1,1.467,1.706,20.288,20.288,0,0,0,1.4,1.772,7.593,7.593,0,0,0,1.631,1.4,3.924,3.924,0,0,0,2.159.569,2.609,2.609,0,0,0,.393-.04,4.257,4.257,0,0,0,.47-.1c.058-.019.107-.038.158-.056a1.7,1.7,0,0,0,.237-.11.445.445,0,0,0,.124-.1,5.691,5.691,0,0,0,1.569-1.363.031.031,0,0,1,0-.013c.079-.1.163-.2.259-.314.176-.21.367-.424.576-.649s.395-.413.563-.565a19.6,19.6,0,0,1,3.4-2.455,20.367,20.367,0,0,1,4.173-1.778l1.857,4.577a3.58,3.58,0,0,1,.14.441,1.992,1.992,0,0,1,.062.462.805.805,0,0,1-.126.417,3.8,3.8,0,0,1-.277.395c-.1.122-.191.239-.275.355a.558.558,0,0,0-.124.338v.138a21.26,21.26,0,0,1,2.958-.208,18.892,18.892,0,0,1,2.759.208v-.163a3.467,3.467,0,0,1-1.354-.892,4.767,4.767,0,0,1-.9-1.421l-2.255-5.229a26.936,26.936,0,0,1,3.009-.392,28.536,28.536,0,0,1,3.258-.046m-27.807,2.494c-.151,0-.376,0-.668.006s-.554.012-.769.012v-1.73c0-.372,0-.735.009-1.09s.03-.712.066-1.058a3.9,3.9,0,0,0,.01-.5.842.842,0,0,1,.107-.461c.192-.011.378-.029.556-.047a5.546,5.546,0,0,1,.556-.028,9.424,9.424,0,0,1,1.027.058,2.371,2.371,0,0,1,.949.287,2.23,2.23,0,0,1,.9.892,1.969,1.969,0,0,1,.268,1.082,2.509,2.509,0,0,1-.6,1.921,3.378,3.378,0,0,1-2.409.655M427.4,292.1a11.721,11.721,0,0,0-3.333,2.164l4.438-10.086h.073l2.735,6.732a18.747,18.747,0,0,0-3.913,1.19" transform="translate(-149.705 -8.858)" fill="#b28d40"></path><path id="Path_646" data-name="Path 646" d="M506.487,291.394c.025-.248-.359-.114-.56-.122-.025.25.36.117.56.122" transform="translate(-201.723 -14.794)" fill="#b28d40"></path><path id="Path_647" data-name="Path 647" d="M503.614,290.71a.554.554,0,0,0-.517-.14c-.023.252.357.122.517.14" transform="translate(-200.207 -14.423)" fill="#b28d40"></path><path id="Path_648" data-name="Path 648" d="M492.22,301.877a.622.622,0,0,0,.483.647,1.772,1.772,0,0,0-.076-.308.882.882,0,0,0-.407-.339" transform="translate(-194.382 -20.49)" fill="#b28d40"></path><path id="Path_649" data-name="Path 649" d="M503.79,297.9l-1-.236a2.662,2.662,0,0,0,1.71.476c-.061-.24-.507-.171-.705-.24" transform="translate(-200.042 -18.232)" fill="#b28d40"></path><path id="Path_650" data-name="Path 650" d="M497.406,293.693a3.464,3.464,0,0,0,.7,0v-.168l-1.013-.181a.571.571,0,0,0,.309.348" transform="translate(-196.994 -15.92)" fill="#b28d40"></path><path id="Path_651" data-name="Path 651" d="M503.643,294.532a1.274,1.274,0,0,0-.51-.075.473.473,0,0,0,.31.308,10.212,10.212,0,0,0,3,.277,8.681,8.681,0,0,0-1.708-.262Z" transform="translate(-200.227 -16.512)" fill="#b28d40"></path><path id="Path_652" data-name="Path 652" d="M480.758,292.31s.719,2.2,2.646,1.83l.807-.4a1.658,1.658,0,0,0,.428-.66,2.4,2.4,0,0,0,.338,0,3.142,3.142,0,0,0,.547-.245,1.369,1.369,0,0,0,.327-.357,4.047,4.047,0,0,0,0-.711,1.744,1.744,0,0,1,.222,0,6.841,6.841,0,0,1,1.308.484.634.634,0,0,0,.335.006.733.733,0,0,0,.25-.551c0-.384.035-.911.006-1.326l-.343.379a.909.909,0,0,1-.063,1l-.729-.731a1.723,1.723,0,0,0-.33-.093c-.12.071-.234.247-.317.19a3.514,3.514,0,0,1-1-1.185c.009.015-.024-.163,0-.208a1.075,1.075,0,0,1,.443-.4c.214-.113.582-.222.684-.078a4.534,4.534,0,0,0,1.206.885,10.6,10.6,0,0,1,1.1.311h.891c.141,0,.209-.376.246-.586a3.059,3.059,0,0,0-.129-.489c-.017-.1-.059-.326.152-.23.349.16.859.173,1.152.4,0,0,.263.01.656,0,.006-.03.013-.058.018-.089a.49.49,0,0,1,.294.074c1.058-.061,2.653-.3,3.02-1.156a2.1,2.1,0,0,0,.213-.034l.024-.018a4.1,4.1,0,0,0,1.345-.611,3.478,3.478,0,0,0,.931-1.092,1.948,1.948,0,0,0,1.127-1.268,1.038,1.038,0,0,0,.083-.244c-.037-.209-.241-.5-.135-.6a2.962,2.962,0,0,0,.706-.958c.09-.209.2-.45.167-.536a3.176,3.176,0,0,1-.065-1.047,9.275,9.275,0,0,1-.48-1.215,2.493,2.493,0,0,0-2.8-.144,1.982,1.982,0,0,0-.214,2.305c-.013-.028.263.3.4.4s.353.15.465.326a2.771,2.771,0,0,1-.545.244h-1.693a8.816,8.816,0,0,1-.906-.444v-.007c-.08-.01-.183-.027-.305-.055v.012c-.076,0-.351.045-.391,0a1.683,1.683,0,0,0-.234-.213,4.9,4.9,0,0,1-.929-.508.832.832,0,0,0,.066.073c-.023.024-.125.159-.155.159-.244-.026-.3-.471-.42-.492l-.94-.168a2.319,2.319,0,0,0-1.269-.58l-.821-.243h-1.81l-.82.247-1.315.657a2.153,2.153,0,0,0-.41.411,2.452,2.452,0,0,0-.247.547l-.164.88v1.25c0,.2.3.3.493.362l.86.259,1.3-.152a4.186,4.186,0,0,1-.455,1.343,3.713,3.713,0,0,0-1.017.623,3.956,3.956,0,0,0-1.521.473s-2.973,1.19-2.284,4m4.751-.306c.027.147-.146.366-.237.579a.189.189,0,0,1-.328,0c-.069-.19.127-.281.094-.489a2.716,2.716,0,0,0-.445-1.293c-.178-.221-.255-.508-.476-.667-.053-.037-.252.01-.285-.011-.119-.084-.267-.189-.3-.33a1.578,1.578,0,0,1,.746.17c.072.027.343-.137.424-.167a1.582,1.582,0,0,1,.167.163,6.8,6.8,0,0,1,.64,2.045m3.957-2.035a1.489,1.489,0,0,1-1.089-.508,2.09,2.09,0,0,1-.87-.331.76.76,0,0,0-.26.348,2.143,2.143,0,0,0-.739-.612v-.391a6.314,6.314,0,0,0,1.083-.18,2.686,2.686,0,0,0,.951.346,4.353,4.353,0,0,0,.924.717c.078.057,0,.49,0,.61m-.846-2.084c-.131-.007-.413-.108-.495.013.231.133.569.217.723.431a5.185,5.185,0,0,1-.928-.2c-.11-.019-.19-.151-.246-.27a.835.835,0,0,1-.014-.427c.12-.169.446-.31.58-.238a1.751,1.751,0,0,0,1.369.026,4.2,4.2,0,0,1,.352.377.746.746,0,0,1,0,.276c-.016.043-.14.213-.183.211-.4-.031-.718-.177-1.157-.2m-.634-2.374a4.578,4.578,0,0,0,1.49-.081,3.383,3.383,0,0,0,.976.8c.061.04,0,.364,0,.42a11.59,11.59,0,0,1-1.99.346c-.152,0-.262-.168-.285-.265a3.956,3.956,0,0,1-.191-1.222m6.117,3.329a.97.97,0,0,1-.608.278,3.207,3.207,0,0,0-.982.088,5.337,5.337,0,0,0-1.241-.15,9.47,9.47,0,0,1-1.535-.278,2.5,2.5,0,0,1,.332-.3,1.894,1.894,0,0,1,.384,0c.061-.241-.132-.445-.125-.623a.161.161,0,0,1,.287-.113c.052.049.217.221.274.231.431.08.8.241,1.21.324a14.336,14.336,0,0,0,2.128.176.393.393,0,0,1-.123.366m2.253-1.53a6.736,6.736,0,0,1-1.193.679l-1.427.166a6.964,6.964,0,0,1-2.638-.6.768.768,0,0,1-.757-.542l.682-.51.746.241a6.9,6.9,0,0,0,2.423.269c.227-.026.436.176.613.315.179-.139.378-.334.585-.334h1.137a.249.249,0,0,1-.169.312m1.983-1.892a1.031,1.031,0,0,1-.45.414,4.837,4.837,0,0,1-1.692.639,15.182,15.182,0,0,1-2.954.013,10.119,10.119,0,0,1-2.073-.334,2.306,2.306,0,0,1-1.048-.539c-.055-.055,0-.34,0-.416a1.843,1.843,0,0,1,.328,0l1.642.493,1.408.163a7.1,7.1,0,0,1,1.332-.325l1.26,0,1.478-.327c.086-.021.295-.291.384-.331a1.868,1.868,0,0,1,.385,0,2.409,2.409,0,0,1,0,.555m-5.079-1.442c.05-.054.181.022.241.032a7.768,7.768,0,0,0,3.86-.106,5.29,5.29,0,0,1,.79-.968.932.932,0,0,0,.147-.618,1.563,1.563,0,0,0-.147-.625c-.079-.181-.269-.442-.418-.442h-.763c-.074,0-.289.26-.354.331a.423.423,0,0,0-.082.331,1.7,1.7,0,0,0,.735-.169c.181-.068.319.144.4.3a.9.9,0,0,1,.015.421,1.021,1.021,0,0,1-.453.4,1.324,1.324,0,0,1-.589.026,1.108,1.108,0,0,1-.338-.314c-.1-.234-.3-.465-.252-.754.066-.421.123-.863.4-1.034a.742.742,0,0,1,.625.027c.073.029.479-.157.586-.155a.994.994,0,0,1,.347.184,3.94,3.94,0,0,1,.5.512c.026.039-.021.231,0,.276.045.087.288.294.331.381a2.162,2.162,0,0,1,.162.7,5.613,5.613,0,0,1-.4,1.153l-.86.833-1.479.324a21.313,21.313,0,0,1-3.177-.06l-2.3-.264v-.33h1.729a2,2,0,0,0,.751-.4m-2.995-1.349c.09.029.239.22.247.222.8.258,1.5.6,2.233.88a.251.251,0,0,1,.163.321,12.594,12.594,0,0,0-1.745.151l-.986-.161a6.541,6.541,0,0,1-1.038-.493c-.034.038-.167.133-.163.165.006.152.155.249.287.321.033.019.211-.013.256.011a1.164,1.164,0,0,1,.346.32c.038.132.073.34-.07.42a8.537,8.537,0,0,1-1.643.464c-.078.025-.212-.224-.162-.385h1.141a.421.421,0,0,0-.08-.324c-.037.029-.162.181-.2.174l-1.068-.174c-.187-.032-.38-.3-.472-.495a2.194,2.194,0,0,0,.472,0c.3-.115.581-.272.89-.427a4.034,4.034,0,0,1,1.133-.845.63.63,0,0,1,.462-.146m-8.41,6.819a5.749,5.749,0,0,0,.957-.775c.514-.143.957-.287,1.5-.387a4.2,4.2,0,0,0,1.607-.97,2.084,2.084,0,0,0,.119-2.477l-1.638.541c-.136.043-.3-.217-.423-.361-.076-.087-.3-.447-.274-.557a5.613,5.613,0,0,1,.409-1.225l.762-.763a3.981,3.981,0,0,1,1.145-.377c.463-.088.968-.079,1.4-.186a10.2,10.2,0,0,0,1.113.165l1.094.163a.41.41,0,0,1-.334.484,1.289,1.289,0,0,0-.952.57,3.865,3.865,0,0,1-1.18.416l-1.039.008c-.04,0-.154-.13-.194-.165a1.63,1.63,0,0,0,0,.319c.11.217.415.143.62.275.269.173.431.516.716.719.057.043.314,0,.392,0a3.841,3.841,0,0,1,0,.734c-.043.133-.379.28-.233.4a.873.873,0,0,1,.3.847.473.473,0,0,1-.173.155,6.815,6.815,0,0,1-.749,0c.045.272.263.54.2.883a1.183,1.183,0,0,1-.886.423l-.5.65a1.526,1.526,0,0,1-.878-.084,1.516,1.516,0,0,0-.468.608l-.777-.194-.521.673a.48.48,0,0,1-.3,0c-.15-.09-.257-.288-.43-.348v.579c-.178.094-.425.167-.492.379a4.126,4.126,0,0,0,0,.7h-.488a.389.389,0,0,0,.1.318A4.278,4.278,0,0,0,482.72,293c.18.088.347-.112.559-.112.071,0,.3-.22.356-.3a3.243,3.243,0,0,0,.246-.547.98.98,0,0,0,0-.3.459.459,0,0,0-.493-.3,3.5,3.5,0,0,1,0,.718c-.071.182-.283.3-.449.418a.436.436,0,0,1-.277.011,1.172,1.172,0,0,1-.418-1.094.872.872,0,0,1,.706-.7,2.226,2.226,0,0,1,.547-.01,2,2,0,0,1,.571.256.964.964,0,0,1,.3.625v1l-.766.753-.795.169a1.436,1.436,0,0,1-.732-.26l-.581-.567-.41-.878a1.54,1.54,0,0,1,0-.613,11.4,11.4,0,0,0,.371-1.2,1.257,1.257,0,0,1,.4-.611" transform="translate(-188.187 -8.899)" fill="#b28d40"></path><path id="Path_653" data-name="Path 653" d="M491.662,300.831a1.527,1.527,0,0,0,0,.319c.035.1.159.123.254.166-.053-.179-.069-.39-.254-.486" transform="translate(-194.077 -19.93)" fill="#b28d40"></path><path id="Path_654" data-name="Path 654" d="M143.224,291.394c-.025-.248.359-.114.56-.122.025.25-.36.117-.56.122" transform="translate(-7.438 -14.794)" fill="#b28d40"></path><path id="Path_655" data-name="Path 655" d="M146.147,290.71a.554.554,0,0,1,.517-.14c.023.252-.357.122-.517.14" transform="translate(-9.005 -14.423)" fill="#b28d40"></path><path id="Path_656" data-name="Path 656" d="M157.581,301.877a.622.622,0,0,1-.483.647,1.738,1.738,0,0,1,.076-.308.883.883,0,0,1,.407-.339" transform="translate(-14.871 -20.49)" fill="#b28d40"></path><path id="Path_657" data-name="Path 657" d="M144.6,297.9l1-.236a2.663,2.663,0,0,1-1.71.476c.061-.24.507-.171.706-.24" transform="translate(-7.796 -18.232)" fill="#b28d40"></path><path id="Path_658" data-name="Path 658" d="M151.784,293.693a3.469,3.469,0,0,1-.7,0v-.168l1.014-.181a.571.571,0,0,1-.309.348" transform="translate(-11.647 -15.92)" fill="#b28d40"></path><path id="Path_659" data-name="Path 659" d="M142.9,294.532a1.273,1.273,0,0,1,.51-.075.475.475,0,0,1-.311.308,10.21,10.21,0,0,1-3,.277,8.681,8.681,0,0,1,1.707-.262Z" transform="translate(-5.761 -16.512)" fill="#b28d40"></path><path id="Path_660" data-name="Path 660" d="M145.693,288.313a3.954,3.954,0,0,0-1.521-.473,3.712,3.712,0,0,0-1.017-.623,4.184,4.184,0,0,1-.455-1.343l1.295.153.86-.26c.19-.061.493-.159.493-.362v-1.25l-.164-.88a2.429,2.429,0,0,0-.246-.547,2.151,2.151,0,0,0-.41-.411l-1.315-.657-.819-.247h-1.81l-.821.243a2.323,2.323,0,0,0-1.269.58l-.941.168c-.122.021-.176.466-.419.492-.03,0-.131-.135-.155-.159a.917.917,0,0,0,.066-.073,4.9,4.9,0,0,1-.929.508,1.687,1.687,0,0,0-.234.213c-.041.045-.315,0-.391,0v-.012c-.123.028-.225.045-.305.055v.008a8.857,8.857,0,0,1-.905.444h-1.693a2.716,2.716,0,0,1-.545-.244c.112-.176.324-.226.465-.326s.409-.425.4-.4a1.984,1.984,0,0,0-.214-2.305,2.494,2.494,0,0,0-2.8.144,9.214,9.214,0,0,1-.479,1.215,3.175,3.175,0,0,1-.065,1.047c-.034.086.077.327.167.536a2.961,2.961,0,0,0,.706.958c.105.1-.1.395-.135.6a1.054,1.054,0,0,0,.084.244,1.947,1.947,0,0,0,1.127,1.268,3.471,3.471,0,0,0,.931,1.092,4.106,4.106,0,0,0,1.345.611l.024.018a2.12,2.12,0,0,0,.213.034c.367.858,1.962,1.095,3.021,1.156a.49.49,0,0,1,.294-.074c.005.03.012.059.018.089.392.013.656,0,.656,0,.293-.232.8-.245,1.152-.4.212-.1.169.135.152.23a3.055,3.055,0,0,0-.129.489c.037.21.105.586.247.586h.891a10.707,10.707,0,0,1,1.1-.311,4.543,4.543,0,0,0,1.205-.885c.1-.144.47-.035.684.078a1.075,1.075,0,0,1,.443.4c.028.046,0,.223,0,.208a3.509,3.509,0,0,1-1,1.185c-.083.056-.2-.119-.318-.19a1.718,1.718,0,0,0-.329.093l-.729.731a.909.909,0,0,1-.062-1l-.343-.379c-.029.416.009.943.006,1.326a.732.732,0,0,0,.25.551.634.634,0,0,0,.335-.006,6.86,6.86,0,0,1,1.308-.484,1.736,1.736,0,0,1,.221,0,4.086,4.086,0,0,0,0,.711,1.385,1.385,0,0,0,.327.357,3.146,3.146,0,0,0,.548.245,2.4,2.4,0,0,0,.338,0,1.657,1.657,0,0,0,.427.66l.807.4c1.927.371,2.646-1.83,2.646-1.83.689-2.808-2.285-4-2.285-4m-1.827,1.646a1.573,1.573,0,0,1,.167-.162c.081.03.352.194.424.167a1.584,1.584,0,0,1,.746-.17c-.033.141-.181.246-.3.33-.033.021-.233-.026-.285.011-.221.159-.3.447-.476.667a2.722,2.722,0,0,0-.445,1.293c-.033.209.163.3.094.49a.189.189,0,0,1-.328,0c-.091-.213-.264-.433-.237-.579a6.827,6.827,0,0,1,.64-2.045m-4.6-.6a4.345,4.345,0,0,0,.924-.717,2.689,2.689,0,0,0,.951-.346,6.269,6.269,0,0,0,1.082.18v.391a2.152,2.152,0,0,0-.739.612.754.754,0,0,0-.26-.348,2.086,2.086,0,0,1-.869.331,1.489,1.489,0,0,1-1.09.508c0-.12-.077-.553,0-.61m-.312-1.27c-.043,0-.167-.169-.183-.211a.768.768,0,0,1,0-.276,4.338,4.338,0,0,1,.352-.377,1.752,1.752,0,0,0,1.37-.026c.133-.073.459.069.579.238a.835.835,0,0,1-.015.427c-.055.118-.136.251-.246.27a5.181,5.181,0,0,1-.928.2c.155-.214.493-.3.724-.431-.082-.121-.364-.02-.5-.013-.439.027-.757.174-1.158.2m1.6-1.357c-.022.1-.132.269-.284.265a11.6,11.6,0,0,1-1.991-.346c0-.057-.06-.381,0-.42a3.386,3.386,0,0,0,.977-.8,4.578,4.578,0,0,0,1.49.081,3.938,3.938,0,0,1-.191,1.222m-6.048,1.741a14.347,14.347,0,0,0,2.128-.176c.408-.083.778-.244,1.209-.324.057-.01.221-.182.274-.231a.161.161,0,0,1,.287.113c.006.178-.186.381-.125.623a1.9,1.9,0,0,1,.384,0,2.473,2.473,0,0,1,.331.3,9.457,9.457,0,0,1-1.534.278,5.337,5.337,0,0,0-1.242.15,3.217,3.217,0,0,0-.982-.088.969.969,0,0,1-.608-.278.391.391,0,0,1-.123-.366m-2.3-1.474h1.138c.207,0,.406.194.585.333.177-.139.386-.341.612-.315a6.893,6.893,0,0,0,2.423-.269l.746-.241.681.51a.767.767,0,0,1-.757.542,6.966,6.966,0,0,1-2.638.6l-1.426-.166a6.769,6.769,0,0,1-1.194-.679.249.249,0,0,1-.169-.312m-1.814-2.136a1.868,1.868,0,0,1,.385,0c.089.04.3.31.384.331l1.478.327,1.259,0a7.091,7.091,0,0,1,1.332.325l1.408-.163,1.641-.493a1.848,1.848,0,0,1,.329,0c0,.076.055.361,0,.416a2.306,2.306,0,0,1-1.048.539,10.123,10.123,0,0,1-2.073.334,15.148,15.148,0,0,1-2.954-.013,4.841,4.841,0,0,1-1.692-.639,1.033,1.033,0,0,1-.45-.414,2.437,2.437,0,0,1,0-.555m5.83-.491h1.729v.331l-2.3.264a21.311,21.311,0,0,1-3.177.06L131,284.7l-.859-.833a5.628,5.628,0,0,1-.4-1.154,2.152,2.152,0,0,1,.162-.7c.042-.088.286-.294.331-.381.021-.045-.026-.236,0-.276a3.9,3.9,0,0,1,.5-.512,1,1,0,0,1,.347-.184c.107,0,.513.184.586.155a.741.741,0,0,1,.625-.027c.273.17.33.613.4,1.034.045.288-.152.519-.252.754a1.107,1.107,0,0,1-.338.314,1.326,1.326,0,0,1-.59-.026,1.024,1.024,0,0,1-.453-.4.91.91,0,0,1,.015-.421c.078-.156.217-.367.4-.3a1.7,1.7,0,0,0,.735.169.424.424,0,0,0-.081-.331c-.065-.071-.28-.331-.354-.331H131c-.149,0-.339.261-.418.442a1.555,1.555,0,0,0-.147.625.932.932,0,0,0,.147.618,5.267,5.267,0,0,1,.789.968,7.771,7.771,0,0,0,3.861.106c.06-.01.19-.087.241-.032a2,2,0,0,0,.751.4m2.707-1.6a4.05,4.05,0,0,1,1.133.845c.308.155.592.312.889.427a2.2,2.2,0,0,0,.472,0c-.092.191-.286.464-.472.5l-1.068.173c-.043.007-.168-.144-.2-.173a.423.423,0,0,0-.08.323h1.141c.05.162-.084.41-.162.385a8.538,8.538,0,0,1-1.643-.464c-.143-.08-.108-.287-.071-.42a1.166,1.166,0,0,1,.347-.32c.045-.024.222.008.256-.011.133-.072.282-.169.287-.321,0-.031-.129-.127-.163-.165a6.528,6.528,0,0,1-1.039.493l-.986.161a12.581,12.581,0,0,0-1.745-.151.252.252,0,0,1,.163-.321c.731-.28,1.432-.621,2.234-.879.008,0,.157-.193.247-.222a.631.631,0,0,1,.463.147m8.345,7.283a11.208,11.208,0,0,0,.371,1.2,1.538,1.538,0,0,1,0,.613l-.41.878-.581.567a1.436,1.436,0,0,1-.733.26l-.794-.169-.766-.753v-1a.964.964,0,0,1,.3-.625,1.99,1.99,0,0,1,.571-.256,2.222,2.222,0,0,1,.547.01.873.873,0,0,1,.706.7,1.528,1.528,0,0,1,0,.35,1.508,1.508,0,0,1-.421.744.435.435,0,0,1-.277-.011c-.166-.12-.378-.237-.449-.418a3.5,3.5,0,0,1,0-.718.459.459,0,0,0-.493.3.982.982,0,0,0,0,.3,3.248,3.248,0,0,0,.246.547c.054.079.285.3.356.3.212,0,.379.2.559.112a4.279,4.279,0,0,0,1.363-1.408.39.39,0,0,0,.1-.318h-.488a4.133,4.133,0,0,0,0-.7c-.067-.212-.314-.285-.492-.379v-.579c-.173.06-.281.259-.431.348a.477.477,0,0,1-.3,0l-.52-.673-.778.194a1.513,1.513,0,0,0-.468-.608,1.526,1.526,0,0,1-.878.084l-.5-.65a1.184,1.184,0,0,1-.886-.423c-.062-.342.156-.611.2-.882a6.923,6.923,0,0,1-.749,0,.478.478,0,0,1-.173-.155.872.872,0,0,1,.3-.847c.146-.12-.19-.267-.233-.4a3.8,3.8,0,0,1,0-.734c.078,0,.335.043.392,0,.285-.2.447-.546.716-.719.2-.133.509-.058.62-.275a1.671,1.671,0,0,0,0-.32c-.04.035-.154.165-.194.165l-1.039-.008a3.866,3.866,0,0,1-1.18-.416,1.29,1.29,0,0,0-.952-.57.41.41,0,0,1-.334-.484l1.093-.163a10.162,10.162,0,0,0,1.113-.165c.437.106.942.1,1.405.186a3.98,3.98,0,0,1,1.145.377l.762.763a5.589,5.589,0,0,1,.409,1.225c.027.11-.2.47-.274.557-.128.144-.288.4-.423.362l-1.638-.541a2.085,2.085,0,0,0,.119,2.477,4.2,4.2,0,0,0,1.608.97c.541.1.984.245,1.5.387a5.787,5.787,0,0,0,.957.775,1.255,1.255,0,0,1,.4.611" transform="translate(0 -8.899)" fill="#b28d40"></path><path id="Path_661" data-name="Path 661" d="M158.393,300.831a1.531,1.531,0,0,1,0,.319c-.035.1-.159.123-.254.166.052-.179.069-.39.254-.486" transform="translate(-15.428 -19.93)" fill="#b28d40"></path></g></svg>